<?xml version="1.0" encoding="utf-8"?>
<!-- Generator: Adobe Illustrator 24.0.3, SVG Export Plug-In . SVG Version: 6.00 Build 0)  -->
<svg version="1.1" id="Ebene_1" xmlns="http://www.w3.org/2000/svg" xmlns:xlink="http://www.w3.org/1999/xlink" x="0px" y="0px"
	 viewBox="0 0 1080 1080" style="enable-background:new 0 0 1080 1080;" xml:space="preserve">
<style type="text/css">
	.st0{stroke:#000000;stroke-width:4;stroke-miterlimit:10;}
</style>
<g>
	<path d="M760.41,499.65c0.5-1.76,0.9-2.79,1.08-3.85c1.44-8.15,2.8-16.31,4.25-24.46c0.56-3.16-0.08-6.22-1.14-9.23
		c-2.89-8.23-5.85-16.45-8.84-24.66c-0.98-2.7-1.6-3.08-5.23-3.01c-5.87,0.1-11.69,0.11-17.49-0.89c-2.36-0.41-4.96-0.32-7.4-0.12
		c-14.77,1.21-29.53,2.45-43.95,5.45c-3.58,0.74-5.97,1.99-7.25,4.78c-1.73,3.78-4,7.41-5.82,11.17c-1.38,2.85-0.98,3.5,2.77,4.47
		c5.93,1.53,10.93,4.12,15.6,7.26c5.6,3.77,11.29,7.49,15.29,12.35c2.98,3.62,5.22,7.6,7.85,11.4c0.77,1.12,1.53,2.32,2.69,3.18
		c1.56,1.16,2.25,2.41,2.07,4.01c-0.42,3.8-0.83,7.6-1.27,11.4c-0.31,2.73-2.14,4.92-4.27,6.98c-7.48,7.19-9.78,15.4-7.86,24.34
		c0.52,2.45,1.67,4.84,2.84,7.17c6.35,12.63,12.82,25.22,19.17,37.85c0.79,1.58,1.32,3.26,1.7,4.93c0.94,4.1,2.96,7.86,5.49,11.53
		c3.47,5.05,6.83,10.16,9.84,15.37c3.04,5.26,4.73,10.85,5.13,16.61c0.53,7.41,1.02,14.83,1.35,22.25
		c0.21,4.83-0.21,9.63-1.98,14.32c-0.88,2.32-0.24,4.56,0.59,6.81c0.42,1.14,0.99,2.38,0.79,3.49c-0.63,3.44-1.62,6.84-2.41,10.27
		c-0.25,1.08-0.37,2.18-0.39,3.27c-0.08,3.61,0.1,7.22-0.17,10.82c-0.17,2.28-0.62,4.63-1.58,6.77c-1.01,2.25-1.41,4.43-1.25,6.77
		c0.38,5.5,0.6,11.01,0.91,16.52c0.03,0.49,0.1,1.06,0.45,1.43c1.95,2.12,1.78,4.54,1.86,6.95c0.05,1.6,0.36,3.2,0.53,4.79
		c0.17,1.56,0.85,2.86,2.47,3.94c0.8,0.54,1.33,1.47,1.59,2.3c1.89,6.04,3.68,12.1,5.51,18.15c0.18,0.58,0.61,1.18,0.54,1.74
		c-0.69,5.58,2.02,10.74,3.91,15.88c1.43,3.9,2.45,7.72,3.02,11.71c0.34,2.35,1.45,4.66,2.43,6.94c2.39,5.52,4.96,10.98,7.34,16.5
		c0.52,1.21,0.77,2.56,0.74,3.84c-0.05,1.96-1.64,2.89-4.13,2.69c-0.26-0.02-0.52-0.05-0.76-0.12c-9.14-2.72-17.81-5.85-20.72-14.03
		c-0.98-2.76-3.15-4.97-5.3-7.28c-3.01-3.24-5.68-6.72-7.97-10.3c-5.3-8.27-10.12-16.73-15.45-24.99
		c-5.93-9.19-10.7-18.74-15.04-28.41c-3.7-8.24-6.65-16.69-10.45-24.91c-3.62-7.83-7.72-15.55-11.95-23.2
		c-2.94-5.31-7.86-9.68-12.65-14.06c-1.93-1.77-3.88-3.52-5.88-5.24c-2.31-1.99-5.27-2.75-9.24-2.69c0,1.3-0.07,2.45,0.01,3.59
		c0.74,9.78,4.83,18.84,9.89,27.71c1.05,1.83,2.08,3.68,2.93,5.57c0.56,1.23,0.93,2.65-0.58,3.66c-1.58,1.06-3.55,0.79-5.15,0.11
		c-1.66-0.71-3.07-1.79-4.55-2.74c-0.39-0.25-0.68-0.62-0.91-0.97c-5.09-7.7-9.63-15.58-12.3-24.01c-0.3-0.95-0.16-1.99-0.1-2.99
		c0.34-5.81,0.68-11.62,1.09-17.43c0.19-2.68-0.4-4.88-3.98-6.24c-2.36-0.9-2.82-2.81-2.3-4.73c1.1-4.02,2-8.1,3.54-12.02
		c1.37-3.5,0.68-6.4-2.01-9.34c-6.99-7.66-14.68-14.82-23.56-21.25c-3.2-2.31-5.79-5.13-8.52-7.8c-3.06-3-5.97-6.09-8.92-9.15
		c-1.18-1.23-2.08-2.45-1.4-4.16c0.28-0.72-0.16-1.82-0.76-2.49c-2.73-3.05-5.64-6.02-8.5-9c-0.2-0.21-0.6-0.29-1.12-0.53
		c-0.69,1.41-0.02,2.44,1.05,3.31c2.44,2,2.97,4.39,2.65,6.99c-0.47,3.8-0.9,7.6-1.43,11.39c-1.3,9.23-0.65,18.44,0.24,27.66
		c0.85,8.81,1.79,17.61,2.62,26.41c0.09,0.97,0.13,2.13-0.46,2.92c-2.11,2.82-1.49,5.6-0.3,8.44c2.16,5.16,4.19,10.35,6.51,15.46
		c4.51,9.94,9.11,19.86,13.8,29.75c2.74,5.79,6.54,11.15,11.86,15.81c1.62,1.41,2.44,3.03,2.42,5.07c-3.08,0.86-5.62,0.46-7.67-1.49
		c-0.82-0.78-1.5-1.64-2.33-2.42c-0.7-0.65-1.52-1.23-2.5-2.01c-1.3,1.38-0.53,2.4-0.21,3.39c2.29,7.02,5.11,13.9,8.8,20.56
		c1.14,2.06,1.77,4.04,1.12,6.39c-0.44,1.56,0.39,3.34,0.68,5.02c0.31,1.78,0.9,3.56,0.89,5.35c0,1.25-0.53,2.6-1.3,3.72
		c-1.26,1.83-3.73,1.93-5.41,0.28c-0.86-0.85-1.43-1.9-1.98-2.91c-5.06-9.19-8.26-18.8-10.84-28.56c-0.78-2.95-1.62-5.89-2.59-8.8
		c-0.45-1.35-1.03-2.72-1.92-3.92c-5.66-7.65-8.45-16.18-12.67-24.27c-0.41-0.79-0.41-1.78-0.32-2.66c0.31-3.25-0.22-6.4-1.4-9.52
		c-4.84-12.82-9.47-25.66-12.22-38.88c-1.38-6.64-4.03-13.07-7.99-19.14c-0.96-1.47-1.03-3.28-1.46-4.94
		c-0.32-1.24-0.57-2.5-1.25-3.76c-1.13,1.4-1.2,2.94-1.55,4.42c-0.45,1.87-0.74,3.78-1.48,5.58c-0.62,1.52-1.64,3.02-4.32,2.91
		c-2.79-0.11-5.56-1.58-6.12-3.57c-0.38-1.36-0.5-2.8-0.37-4.18c0.79-8.9,1.46-17.82,2.63-26.7c0.67-5.11,1.52-10.16,0.55-15.29
		c-0.19-0.99-0.27-2.01-0.2-3c0.52-7.63-1.93-14.94-4.03-22.28c-0.13-0.45-0.55-0.86-0.98-1.5c-0.68,0.58-1.41,0.93-1.63,1.42
		c-3.74,8.54-8.54,16.81-10.36,25.84c-2.33,11.62-3.94,23.28-4.81,35.01c-0.32,4.3-1.04,8.59-1.42,12.89
		c-0.29,3.2-0.44,6.41-0.46,9.61c-0.04,8.13-0.1,16.26,0.09,24.38c0.17,7.42,0.79,14.83,0.96,22.25c0.21,9.15,1.34,18.23,2.9,27.29
		c0.24,1.38,0.02,2.81,0.06,4.21c0.03,1.38-0.69,2.34-2.5,2.65c-1.86,0.31-3.38-0.13-4.27-1.47c-0.41-0.62-0.72-1.3-0.88-1.99
		c-1.33-5.52-2.59-11.05-3.92-16.57c-0.43-1.77-0.67-3.61-1.52-5.27c-3.87-7.52-4.82-15.37-4.75-23.34c0.02-2.51,0.18-5.02,0.2-7.52
		c0-0.56-0.34-1.13-0.53-1.71c-2.24-0.48-3.91,0.39-5.63,1.04c-4.23,1.59-5.02,1.38-6.17-2.2c-1.9-5.94-3.56-11.93-5.44-17.88
		c-2.87-9.06-5.88-18.1-8.76-27.17c-0.85-2.68-1.45-5.42-2.72-8.16c-0.23,0.72-0.55,1.44-0.67,2.17
		c-1.11,6.71-0.81,13.41,0.34,20.11c0.32,1.85,0.11,3.79-0.25,5.64c-0.14,0.72-1.29,1.74-2.11,1.82c-0.73,0.07-2.03-0.84-2.41-1.54
		c-0.86-1.55-1.36-3.23-1.91-4.88c-1.07-3.2-2.19-6.39-3.06-9.62c-0.63-2.34-1.09-4.74-1.24-7.13c-0.28-4.31-0.17-8.61-1.65-12.85
		c-0.52-1.48-0.1-3.19,0.06-4.78c0.95-9.1,1.97-18.2,2.9-27.3c0.12-1.22-0.16-2.46-0.27-3.93c-2.43,0.69-2.73,2.05-3.33,3.2
		c-4.56,8.68-7.67,17.69-10.44,26.78c-0.63,2.05-1.26,4.1-1.84,6.16c-0.3,1.08-0.81,2.19-0.69,3.25c0.74,6.34-1.64,12.52-1.31,18.86
		c0.32,6.2-0.37,12.44-0.32,18.65c0.02,2.79,0.51,5.6,1.19,8.35c1.22,4.93,2.91,9.78,4.11,14.71c1.82,7.44,4.82,14.57,8.61,21.53
		c1.11,2.03,2.06,4.12,2.99,6.21c0.33,0.75,0.58,1.56,0.57,2.35c-0.02,1.6-1.28,2.39-3.35,2.12c-2.44-0.32-4.38-1.27-5.5-3.04
		c-0.98-1.53-1.88-3.09-2.9-4.6c-0.44-0.66-1.09-1.23-1.86-2.09c-1.85,2.29-2.09,4.52-1.87,6.63c1.07,9.99,0.15,20.05,2.56,30
		c1.8,7.45,0.91,14.99-0.09,22.51c-0.38,2.87-0.12,5.79,0.02,8.69c0.18,3.71,0.68,7.4,0.8,11.11c0.19,6.02,0.07,12.04,0.33,18.06
		c0.1,2.18,0.75,4.37,1.44,6.49c2.48,7.69,5.16,15.34,7.62,23.03c1.12,3.5,0.44,4.46-3.74,5.9c-2.13,0.74-4.35,1.36-6.61,1.81
		c-2.46,0.48-3.99-0.1-5.18-1.84c-0.78-1.14-1.35-2.39-1.83-3.64c-3.15-8.2-5.22-16.57-6.31-25.08c-0.83-6.49-1.96-12.96-2.52-19.47
		c-0.42-4.8,0.04-9.63-0.25-14.44c-0.24-3.89-0.99-7.77-1.58-11.65c-0.2-1.33-0.86-2.46-2.6-3.14c-1.99-0.78-2.44-2.21-2.27-3.84
		c0.86-8.45,0.02-16.82-1.77-25.17c-0.67-3.15-0.71-6.39-0.82-9.59c-0.18-5.32-0.29-10.63-0.21-15.95c0.06-3.7,0.53-7.4,0.74-11.1
		c0.26-4.6,0.56-9.2,0.65-13.8c0.23-12.04,0.36-24.08,0.49-36.12c0.01-1.12-0.32-2.24-0.49-3.35c-0.78,0.08-1.21,0.06-1.24,0.13
		c-0.57,1.46-0.66,3.15-1.72,4.33c-1.38,1.53-1.05,2.76-0.21,4.19c0.15,0.25,0.13,0.59,0.09,0.88c-0.71,5.36-1.53,10.71-2.09,16.07
		c-0.19,1.87,0.29,3.78,0.43,5.68c0.1,1.39,0.43,2.82,0.15,4.17c-0.49,2.4-3.28,3.79-6.3,3.42c-2.51-0.31-3.73-1.41-3.19-3.36
		c2.09-7.51,1.65-15.18,2.54-22.77c1.09-9.3,2.42-18.56,5.74-27.6c1.3-3.55,1.78-7.28,2.59-10.94c0.09-0.42-0.13-0.87-0.32-2.02
		c-1.04,1.35-1.47,2.18-2.2,2.79c-1.39,1.16-2.75,2.49-4.5,3.21c-2.56,1.05-4.76-0.35-4.31-2.58c0.18-0.87,0.7-1.72,1.16-2.54
		c5.9-10.6,11.8-21.21,17.75-31.79c3.6-6.39,5.88-13.07,7.5-19.9c1.31-5.53,2.66-11.05,3.96-16.58c0.18-0.76,0.21-1.54,0.3-2.24
		c-0.44-0.17-0.68-0.35-0.88-0.33c-2.04,0.19-3.94,0.14-5.09-1.46c-1.17-1.64,0.09-2.89,1.22-4.12c1.51-1.64,2.99-3.3,4.65-4.84
		c4.44-4.13,7.14-8.88,8.33-14.1c1.43-6.22,2.54-12.49,3.76-18.74c0.07-0.37-0.07-0.77-0.13-1.41c-0.99,0.11-1.86,0.11-2.64,0.31
		c-6.91,1.79-13.79,3.65-20.71,5.42c-1.47,0.38-3.04,0.53-4.58,0.72c-2.29,0.27-3.68,1.24-4.52,2.91c-1.12,2.23-2.46,4.4-3.73,6.59
		c-4.33,7.45-8.02,15.03-9.01,23.25c-0.34,2.79-1.17,5.54-1.79,8.31c-3.13,13.88-8.51,27.29-14.26,40.63
		c-0.74,1.71-1.31,3.47-2.13,5.16c-2.67,5.48-2.77,11.19-2.75,16.92c0.01,2.52,1.3,4.68,3.3,6.62c1.86,1.81,3.83,3.56,5.55,5.44
		c1.82,1.99,0.89,3.39-2.26,3.7c-4.32,0.43-4.53,0.77-3.33,4.05c0.52,1.42,0.66,2.92,0.94,4.39c0.34,1.78,0.27,3.67,1.01,5.34
		c3.48,7.84,3.83,15.98,3.85,24.1c0.03,11.87,1.57,23.65,2.74,35.45c0.25,2.47,1.21,4.92,2,7.35c1.72,5.25,3.65,10.47,5.25,15.74
		c0.62,2.03,0.62,4.18,0.78,6.27c0.11,1.4-0.68,2.53-2.24,3.31c-2.44,1.23-4.23,0.85-5.09-1.28c-1.09-2.68-1.96-5.41-2.87-8.13
		c-2.51-7.48-4.99-14.97-7.49-22.45c-0.49-1.45-0.97-2.91-3.14-3.98c-1.75,0.85-3.63,1.7-5.42,2.65c-1.15,0.61-2.43,1.18-3.51,0.33
		c-0.82-0.64-1.57-1.74-1.47-2.57c0.25-1.98,0.9-3.95,1.6-5.88c2.55-7.05,3.25-14.18,2.39-21.47c-0.51-4.29-0.46-8.62-0.67-12.93
		c-0.06-1.29,0.08-2.64-1.59-3.49c-1.88,0.34-2.53,1.34-2.73,2.64c-1.29,8.17-2.74,16.32-3.84,24.5c-0.8,5.95-2.41,11.7-5.6,17.14
		c-4.25,7.26-5.91,14.71-3.38,22.57c0.72,2.24,1.1,4.54,1.82,6.78c1.08,3.36,2.98,6.42,6.19,8.92c0.55,0.43,1.08,0.88,1.51,1.37
		c1.71,1.93,1.36,3.05-1.39,4.05c-2.76,1.01-5.65,1.53-8.73,1.06c-1.26-0.19-2.52-0.35-4.48-0.63c0.52,1.41,0.86,2.52,1.34,3.6
		c1.56,3.53,2.99,7.07,2.64,10.87c-0.07,0.8-0.11,1.62-0.38,2.38c-0.44,1.26-1.57,2.09-3.24,2.34c-1.61,0.24-2.85-0.37-3.59-1.39
		c-0.95-1.3-1.93-2.64-2.49-4.05c-1.57-3.93-2.92-7.91-4.37-11.87c-1.15-3.13-1.59-3.34-5.77-2.92c-0.26,0.03-0.51,0.08-0.77,0.1
		c-3.17,0.25-4.01-0.39-3.53-2.91c0.47-2.48,1.15-4.94,1.67-7.41c1.05-4.95,2.09-9.91,3.06-14.87c0.18-0.93,0.03-1.9,0.03-3.5
		c-1.97,0.98-3.41,1.56-4.66,2.33c-3.36,2.06-6.59,4.26-9.99,6.29c-2.2,1.32-4.66,2.16-8.01,0.89c0.83-1.32,1.36-2.68,2.41-3.73
		c3.02-3.01,5.99-6.1,9.46-8.79c5.21-4.04,9.37-8.58,12.96-13.51c1.14-1.57,1.67-3.13,1.29-4.89c-1.27-5.95-0.35-11.8,1.26-17.63
		c0.65-2.35,0.92-4.78,1.77-7.09c0.91-2.48,2.01-4.98,3.54-7.26c2.07-3.08,2.95-6.26,1.98-9.58c-0.7-2.39-0.29-4.53,0.68-6.76
		c2.98-6.85,3.87-13.9,2.86-21.08c-0.56-3.95-2.31-7.63-5.03-10.99c-2.09-2.58-3.61-5.29-4.85-8.17c-1.43-3.33-3.35-6.53-5.04-9.79
		c-0.56-1.08-1.2-2.14-2.99-1.94c-2.12,0.24-4.56,0.01-5.82,1.86c-0.18,0.26-0.3,0.56-0.38,0.85c-1.41,5.26-4.52,10.02-7.21,14.91
		c-1.88,3.41-3.56,6.91-4.9,10.47c-3.27,8.7-7.7,17.05-12.23,25.38c-1.1,2.03-2.04,4.12-2.96,6.2c-2.1,4.77-6.16,8.58-10.26,12.35
		c-1.32,1.22-3.25,1.97-6.1,1.35c0.48-0.94,0.71-1.79,1.29-2.46c7.05-8.25,11.05-17.42,14.21-26.91
		c5.55-16.65,9.26-33.55,12.18-50.57c1.61-9.35,3.88-18.62,5.66-27.96c0.53-2.76,0.73-5.6,0.52-8.39
		c-0.62-8.31-1.3-16.63-2.43-24.91c-0.49-3.55-2.04-7.03-3.36-10.48c-0.32-0.84-1.41-1.79-2.45-2.12c-3.26-1.03-4.72-3.01-5.68-5.4
		c-0.4-0.99-0.94-1.96-1.41-2.93c-0.33,0.01-0.66,0.02-1,0.04c-0.37,0.88-0.9,1.75-1.08,2.65c-2.12,10.65-3.28,21.32-1.72,32.09
		c0.2,1.39,0.2,2.81,0.32,4.21c0.14,1.67-0.88,2.89-2.48,3.88c-1.68,1.03-3.45,0.84-3.99-0.75c-1.36-4.03-3.93-7.92-2.64-12.33
		c0.29-0.99-0.09-2.09-0.16-3.14c-0.33-0.04-0.65-0.09-0.98-0.13c-0.39,0.96-0.94,1.9-1.15,2.88c-1.21,5.54-2.45,11.08-3.48,16.64
		c-0.76,4.1-3.3,7.59-5.95,11.04c-0.44,0.58-2.12,1.14-2.85,0.93c-1.01-0.29-1.75-1.28-2.44-2.05c-0.22-0.25,0.03-0.78,0.15-1.16
		c4.45-15.42,6.42-31.09,7.98-46.81c1.16-11.71,2.58-23.4,6.17-34.86c0.48-1.53,0.62-3.11,0.31-4.89c-0.6,0.45-1.32,0.83-1.77,1.35
		c-3.11,3.59-6.35,7.12-9.18,10.83c-3.86,5.05-6.28,10.52-7.6,16.34c-3.17,13.94-5.83,27.93-8.25,41.96
		c-0.92,5.33-2.92,10.6-4.96,15.76c-2.58,6.52-5.62,12.94-8.64,19.36c-3.96,8.43-9.77,16.18-15.12,24.1
		c-1.68,2.49-3.39,4.97-4.88,7.53c-1.29,2.23-1.8,4.46,1.74,5.96c0.48,0.2,0.7,0.79,1.26,1.46c-1.31,0.76-2.4,1.65-3.74,2.13
		c-2.87,1.02-4.93,2.63-6.37,4.71c-2.81,4.07-5.45,8.22-8.27,12.29c-1.46,2.12-2.89,4.3-4.8,6.17c-4.33,4.22-7.75,8.78-10.14,13.83
		c-0.93,1.98-2.03,3.91-3.06,5.86c-2.17,4.09-5.04,7.83-8.32,11.5c-4.93,5.51-8.86,11.56-13.2,17.38c-1.1,1.48-2.06,3.02-3.23,4.47
		c-0.94,1.16-2.23,2.03-4.22,1.54c-1.93-0.48-2.64-1.77-2.48-3.08c0.16-1.34,0.73-2.75,1.57-3.94c8.53-12.19,17.21-24.32,25.7-36.52
		c3.81-5.48,7.31-11.09,10.91-16.66c1.21-1.87,2.18-3.81,1.18-6.36c-0.83,0.71-1.48,1.15-1.93,1.67
		c-5.14,5.92-10.23,11.87-15.38,17.79c-9.87,11.34-19.7,22.69-29.67,33.97c-4.17,4.72-7.12,9.73-8.53,15.37
		c-3.52,14.01-10.67,26.8-22.16,38.1c-2.18,2.14-4.58,3.84-8.18,4.24c-1.58,0.18-3.47,0.23-4.17-0.99c-0.49-0.86-0.28-2.2,0.26-3.1
		c0.86-1.44,2.18-2.72,3.43-4c3.81-3.89,6.72-8.12,8.29-12.86c0.89-2.71,0.63-3.16-2.85-4.21c-1.54-0.46-1.93-1.22-1.81-2.32
		c0.09-0.84,0.23-1.67,0.42-3c-0.92,0.57-1.35,0.77-1.66,1.04c-11.97,10.37-23.14,21.14-31.53,33.56
		c-6.25,9.25-13.91,17.93-20.05,27.22c-7.44,11.26-14.04,22.84-20.77,34.37c-1.64,2.81-2.45,5.92-3.44,8.93
		c-1.29,3.91-4.06,6.9-8.64,8.88c-2.37,1.02-4.88,1.37-7.54,0.86c-1.91-0.37-2.92-1.26-2.6-2.85c0.18-0.89,0.51-1.78,0.54-2.67
		c0.03-0.87,0.1-1.88-0.42-2.58c-1.58-2.15-1.21-4.26-0.22-6.39c0.81-1.73,1.32-3.41,0.55-5.28c-0.31-0.76-0.1-1.83,0.35-2.58
		c1.6-2.63,3.38-5.2,5.14-7.78c3.7-5.41,7.8-10.68,11.07-16.24c10.88-18.48,24.44-35.61,41.47-51.15
		c12.1-11.04,23.74-22.38,35.44-33.68c11.25-10.87,20.2-22.89,28.67-35.13c3.19-4.6,6.27-9.25,9.44-13.86
		c4.6-6.7,6.95-14.05,10.23-21.13c3.06-6.62,5.8-13.32,8.93-19.92c1.42-3,3.22-5.92,5.23-8.7c2.06-2.85,3.6-5.71,4.1-8.99
		c1.52-10.07,3.23-20.12,4.89-30.17c0.15-0.89,0.17-1.85,0.67-2.62c0.32-0.49,1.46-0.98,2.16-0.92c0.65,0.05,1.35,0.76,1.76,1.3
		c0.3,0.39,0.21,0.98,0.21,1.48c-0.15,12.34,0.02,24.69-0.59,37.02c-0.46,9.22-2.18,18.38-5.36,27.33
		c-0.06,0.18-0.01,0.39-0.01,0.99c0.58-0.52,1.01-0.77,1.22-1.11c6-9.58,12.09-19.12,17.93-28.76c3.97-6.56,6.74-13.46,9-20.5
		c2.28-7.11,5.4-14.06,7.54-21.19c2.72-9.09,4.82-18.28,7.19-27.43c0.51-1.97,1.09-3.93,1.49-5.91c0.18-0.88-0.03-1.81-0.08-3.34
		c-1.85,1.3-1.49,2.32-1.56,3.25c-0.22,2.78-1.44,4.18-3.74,4.26c-2.32,0.09-3.94-1.14-4.37-3.87c-0.79-4.98-1.28-9.99-2.02-14.97
		c-0.26-1.73,0.08-3.62-1.85-5.45c-0.77,0.67-1.57,1.14-2,1.76c-5.91,8.48-12.58,16.65-17.32,25.61c-2.06,3.89-4.88,7.54-7.22,11.34
		c-2.39,3.9-4.59,7.86-6.93,11.78c-1.55,2.6-3.19,5.17-4.95,8.01c-2.29-1.3-2.76-2.71-2.42-4.22c0.35-1.57,0.91-3.14,1.61-4.64
		c4.59-9.82,9.25-19.62,13.88-29.42c0.17-0.36,0.27-0.75,0.55-1.56c-1.14,0.41-2.06,0.54-2.56,0.96c-2.81,2.35-5.53,4.77-8.26,7.18
		c-1.07,0.95-2.08,1.94-3.35,3.13c-2.04-2.29-1.19-4.16,0.06-5.89c1.65-2.28,3.59-4.43,5.3-6.68c3.36-4.41,6.65-8.85,9.99-13.27
		c1.18-1.56,2.28-3.17,3.68-4.61c3.41-3.51,5.66-7.42,7.44-11.54c0.84-1.94,0.9-3.69-1.08-5.31c-2.03-1.66-1.94-3.68-1.09-5.66
		c1.72-4,3.57-7.96,5.38-11.94c0.48-1.04,1.04-2.06,1.51-3.1c1.02-2.31,0.77-4.5-0.78-6.67c-1.76-2.46-3.41-4.97-4.93-7.51
		c-1.06-1.77-0.92-1.81,0-4.05c1.86-0.46,3.22,0.21,4.37,1.27c1.09,1,2.1,2.05,3.16,3.06c0.9,0.86,1.81,1.74,4.09,1.24
		c-0.36-1.13-0.54-2.28-1.09-3.31c-3.98-7.42-8.46-14.7-11.94-22.25c-3.68-7.98-8.27-15.51-14.06-22.72
		c-6.78-8.44-12.82-17.24-19.18-25.88c-0.32-0.44-0.65-0.87-0.96-1.31c-0.7-0.98-0.79-1.9,0.48-2.68c1.37-0.85,2.93-0.88,4.25,0.08
		c0.74,0.54,1.4,1.21,1.88,1.91c5.93,8.55,14.84,15.19,23.6,21.93c0.62,0.48,1.35,0.88,2.29,1.49c0.25-0.55,0.53-0.89,0.53-1.22
		c0-4.32,0.22-8.64-0.14-12.94c-0.28-3.38-0.9-6.81-2.02-10.08c-3.16-9.21-6.66-18.36-10.02-27.53c-0.46-1.25-0.97-2.51-1.18-3.8
		c-0.1-0.6,0.24-1.62,0.78-1.82c0.78-0.29,2.08-0.25,2.88,0.07c2.35,0.94,3.4,2.71,4.1,4.58c1.64,4.44,3.26,8.88,4.83,13.34
		c1.05,3,1.98,6.03,3,9.04c0.22,0.64,0.62,1.24,1.06,2.11c2.68-2.5,3.56-5.18,3.97-7.98c0.21-1.41,0.36-2.69,2.36-3.5
		c1.51-0.62,1.69-2,1.2-3.23c-0.78-1.96,0.02-3.71,0.67-5.57c2.06-5.91,4.03-11.84,5.78-17.8c1.12-3.82,0.47-7.57-1.83-11.13
		c-2.79-4.31-5.43-8.68-8.17-13c-0.43-0.68-1.08-1.29-1.71-2.03c-1.87,0.7-1.66,1.91-1.79,2.92c-0.78,5.79-1.48,11.58-2.22,17.38
		c-0.24,1.9-0.63,3.79-0.71,5.69c-0.09,2.43-1.76,3.59-4.72,4.04c-1.81-1.46-2.07-3.22-2.27-5.03c-1.25-11.3-2.31-22.61-3.87-33.88
		c-2.53-18.29-7.58-36.24-12.83-54.16c-1.01-3.42-2.11-6.83-3.23-10.24c-2.82-8.6-6.89-16.83-12.33-24.66
		c-7.62-10.97-15.27-21.94-22.9-32.9c-0.74-1.06-1.57-2.09-2.21-3.19c-3.79-6.48-7.3-13.08-13.21-18.67
		c-14.2-20.65-29.66-40.81-41.91-62.23C93.7,62.36,88.4,51.67,82.83,41.07c-0.94-1.79-0.87-1.81-0.26-4.14
		c1.39,0.73,2.85,1.2,3.76,2.03c1.33,1.21,2.41,2.62,3.36,4.03c7.92,11.78,14.65,23.96,20.61,36.4
		c5.04,10.52,12.22,20.17,20.18,29.5c3.88,4.55,8.9,8.4,14.27,11.92c4.98,3.26,8.63,7.18,11.21,11.78c1.8,3.22,3.86,6.36,5.88,9.51
		c0.6,0.94,1.47,1.78,2.98,2.53c0.12-0.6,0.48-1.25,0.31-1.8c-0.89-2.92-1.72-5.87-2.94-8.71c-1.4-3.25-2.48-6.51-2.5-10.04
		c2.32-0.29,3.19,1.02,4.15,1.96c3.35,3.28,5.78,6.95,6.76,11.07c0.82,3.45,1.66,6.94,1.78,10.43c0.23,6.21,2.68,11.83,6.67,17.11
		c4.59,6.07,9.37,12.06,14.01,18.1c2.99,3.89,6.36,7.54,10.24,10.97c8.1,7.14,14.55,15.2,20.02,23.65
		c8.25,12.75,16.13,25.64,24.19,38.46c0.64,1.01,1.49,1.95,2.24,2.92c0.3-0.07,0.61-0.14,0.91-0.21c0-0.82,0.1-1.66-0.01-2.47
		c-2.23-16.65-8.67-32.37-17.56-47.56c-1.41-2.41-1.43-2.4-1.27-4.62c2.55,0.07,3.82,1.46,5.07,2.86
		c5.64,6.35,9.74,13.26,12.89,20.53c2.02,4.66,4.15,9.3,5.97,14.01c4.02,10.38,7.88,20.8,11.82,31.19
		c1.64,4.33,3.43,8.63,5.01,12.98c1.72,4.75,2.31,9.63,3.09,14.52c1.39,8.75,3.08,17.52,5.69,26.09c1.49,4.9,4.98,9.45,7.7,14.11
		c1.49,2.56,3.29,5.01,4.9,7.54c0.5,0.78,0.8,1.64,1.2,2.47c-1.73,1.2-3.21,0.79-4.28-0.16c-2.39-2.1-4.64-4.3-6.83-6.53
		c-1.13-1.15-2.03-2.44-3.27-3.95c-1.29,1.4-0.75,2.4-0.48,3.28c0.97,3.19,0.94,6.37,0.16,9.56c-0.78,3.24-0.11,6.31,1.22,9.45
		c1.94,4.57,3.36,9.27,4.87,13.93c0.6,1.86-0.27,2.55-2.84,2.59c-1.02,0.02-2.04-0.08-3.55-0.14c-0.19,3.12-1.88,5.99-0.93,9.14
		c1.91-0.05,2.06-1.04,2.36-1.85c0.48-1.35,1.39-2.53,3.19-2.79c3.39-0.48,4.64-2.42,5.65-4.51c1.54-3.2,4.44-5.37,8.29-6.89
		c0.58-0.23,1.16-0.49,1.78-0.58c1.52-0.23,2.53,0.55,2.24,1.74c-0.14,0.58-0.49,1.14-0.84,1.67c-0.97,1.42-1.96,2.84-2.99,4.23
		c-7.96,10.74-12.3,22.25-12.68,34.65c-0.13,4.41-0.55,8.82-0.79,13.23c-0.06,1.04,0.09,2.09,0.15,3.27
		c1.96-0.08,2.51-0.93,2.72-1.77c0.99-4.05,3.77-7.32,6.66-10.73c2.65-3.14,4.23-6.89,5.75-10.5c5.4-12.79,10.26-25.7,13.49-38.94
		c0.89-3.65,0.59-7.2-1.16-10.65c-3.71-7.35-5.81-14.98-7.1-22.77c-0.55-3.3-1.48-6.51-3.51-9.5c-0.59-0.87-0.88-1.88-1.17-2.85
		c-1.24-4.2-2.33-8.44-3.66-12.62c-1.85-5.84-4.52-11.53-5.1-17.6c-0.14-1.48-0.89-2.92-1.37-4.38c-0.76-2.29-2.07-4.47-0.78-7
		c0.5-0.98-0.15-2.36-0.46-3.53c-0.63-2.36-1.56-4.68-2.02-7.05c-0.34-1.75-0.11-3.57-0.2-5.36c-0.09-1.69-0.03-3.41-0.46-5.05
		c-1.13-4.32-2.46-8.61-3.77-12.9c-0.84-2.73-1.84-5.43-2.69-8.16c-0.31-1.01-0.41-2.06-0.71-3.59c5.65,0.86,9.3,2.79,11,6.53
		c0.98,2.17,1.62,4.44,2.3,6.69c2.23,7.43,4.42,14.86,6.58,22.29c0.25,0.87,0.16,1.8,0.36,2.68c0.3,1.27,0.43,2.63,1.14,3.76
		c3.41,5.41,5.04,11.16,5.75,17.1c0.09,0.79,0.06,1.72,0.59,2.31c1.83,2.06,1.63,4.31,1.78,6.64c0.23,3.59,0.42,7.28,1.67,10.7
		c2.6,7.14,5.82,14.15,8.91,21.18c1.93,4.38,5.32,8.02,10.16,10.81c0.59,0.34,1.3,0.57,2.55,1.11c0.2-1.26,0.44-2.18,0.49-3.11
		c0.56-10.39-0.98-20.63-3.53-30.81c-1.93-7.68-3.41-15.43-5.53-23.08c-2.28-8.24-5.06-16.39-7.64-24.58
		c-0.71-2.24-1.57-4.46-2.13-6.72c-0.19-0.76,0.32-1.63,0.51-2.45c1.13,0.35,2.41,0.54,3.33,1.09c0.76,0.45,1.18,1.3,1.61,2.02
		c0.49,0.82,0.86,1.68,1.21,2.54c5.72,14.07,11.34,28.17,17.2,42.21c1.41,3.38,3.65,6.56,5.5,9.83c0.29-0.02,0.58-0.04,0.87-0.06
		c0.25-0.48,0.58-0.94,0.73-1.44c2.1-6.83,3.94-13.72,6.32-20.49c1.79-5.08,1.13-9.55-2.62-14.04
		c-7.75-9.28-15.09-18.77-22.71-28.12c-4.43-5.42-8.07-11.25-13.94-15.95c-1.83-1.46-2.28-3.52-2.12-5.82
		c1.48-0.07,2.82-0.13,4.78-0.23c-0.5-1.17-0.8-2.19-1.35-3.13c-2.59-4.49-5.26-8.96-7.85-13.45c-0.71-1.24-1.53-2.51-0.85-4.46
		c1.42,0.68,2.68,1.02,3.44,1.7c1.52,1.35,3.05,2.78,4.06,4.36c6.23,9.72,12.41,19.45,18.42,29.25c3.8,6.21,8.17,12.07,14.13,17.24
		c5.19,4.49,9.86,9.34,15.84,13.28c2.16,1.43,4,3.17,5.79,4.88c9.73,9.3,19.39,18.64,29.1,27.95c1.04,1,2.21,1.91,3.41,2.95
		c0.77-0.4,1.42-0.59,1.78-0.95c4.66-4.57,9.58-8.99,13.09-14.21c2.7-4.01,5.77-7.86,8.49-11.86c0.82-1.2,1.25-2.63,1.5-3.99
		c0.95-5.06,1.46-10.17,2.68-15.18c1.27-5.21,1.84-10.31-0.18-15.48c-0.47-1.19-0.39-2.51-0.57-3.82c4.43,0.28,7.59,2.27,8.65,5.39
		c0.72,2.13,1.16,4.32,1.77,6.48c0.47,1.67,0.85,3.36,1.56,4.97c0.98,2.23,1.56,4.44,0.81,6.78c-0.17,0.53-0.02,1.11-0.02,2.22
		c1.7-0.9,2.89-1.45,3.96-2.12c2.82-1.78,5.61-3.59,8.37-5.43c2.87-1.91,3.07-2.56,1.06-5.13c-5.92-7.56-11.77-15.16-17.93-22.61
		c-8.72-10.54-15.81-21.69-21.46-33.39c-0.51-1.05-0.72-2.18-1.21-3.72c2.75,0.52,4.12,1.54,5.34,2.69
		c2.32,2.17,4.53,4.41,6.88,6.55c1.22,1.11,2.65,2.09,4.6,2.83c-0.06-0.54,0.02-1.13-0.2-1.63c-2.36-5.31-4.73-10.62-7.19-15.91
		c-2.15-4.63-4.44-9.22-6.59-13.85c-0.41-0.88-0.42-1.87-0.62-2.82c2.2-0.63,3.47,0.11,4.51,0.99c0.86,0.73,1.6,1.6,2.13,2.5
		c5.67,9.7,11.36,19.38,16.86,29.14c1.65,2.93,2.85,6.03,3.99,9.12c2.98,8.08,7.95,15.47,13.23,22.75c2.16,2.98,4.61,5.83,7,8.7
		c0.67,0.81,1.59,1.5,2.61,2.45c3.61-2.21,6.59-4.26,6.9-7.88c0.17-1.99,0.62-3.99,1.25-5.93c0.43-1.32,1.42-2.53,2.14-3.8
		c1.56-2.75,3.31-5.44,4.64-8.26c3.43-7.29,3.49-7.34,0.8-14.79c-3.32-9.18-6.9-18.31-10.33-27.46c-0.45-1.2-0.72-2.44-1.14-3.88
		c3.7-0.17,6.2,0.87,7.49,2.96c1.89,3.06,3.61,6.23,4.83,9.48c1.84,4.91,3.18,9.93,4.76,14.9c0.3,0.95,0.73,1.88,1.35,3.47
		c0.75-1.18,1.2-1.72,1.46-2.31c0.88-1.99,1.65-4.02,2.54-6.01c0.56-1.24,1.85-1.91,3.35-1.21c2.07,0.97,4.09,2.11,5.72,3.47
		c0.64,0.54,0.44,1.91,0.16,2.82c-0.76,2.43-1.77,4.81-2.76,7.39c3.32,0.51,6.06-0.58,8.82-1.18c3.25-0.71,5.92-0.06,8.38,1.43
		c0.74,0.45,1.17,1.2,2.06,2.14c-1.77,0.53-3.03,0.99-4.35,1.29c-5.76,1.28-10.68,3.68-15.13,6.69c-3.04,2.05-3.36,3.18-1.72,6.08
		c1.09,1.93,2.18,3.87,3.44,5.74c0.64,0.95,1.49,1.9,2.52,2.6c2.14,1.45,3.54,3.19,4.31,5.27c0.11,0.29,0.24,0.57,0.34,0.86
		c4.56,13.61,10.45,26.91,16.34,40.2c2.01,4.55,3.41,9.26,5.09,13.9c0.35,0.97,0.61,1.96,1.06,2.89c1.16,2.38,2.32,3.06,5.6,2.76
		c4.65-0.42,9.26-1.1,13.89-1.66c3.47-0.42,6.94-0.78,10.4-1.23c1-0.13,2.28-0.21,2.87-0.71c1.84-1.55,4.27-1.84,6.67-2.27
		c3.17-0.57,6.38-1.04,9.54-1.65c2.89-0.56,3.34-1.06,3.19-3.4c-0.07-1.2-0.31-2.4-0.48-3.59c-0.38-2.74-0.26-2.85,3.24-3.11
		c0.37-0.03,0.73-0.16,1.46-0.33c0.21-1.47,0.43-3.02,0.67-4.68c3.38-0.55,5.62,0.68,7.41,2.48c0.93,0.94,1.64,2.06,2.19,3.18
		c1.09,2.2,3.48,3.34,6.22,5.29c0-2.09,0-3.49,0-4.9c2.84-0.66,4.48,0.83,6.97,1.56c0.61-0.92,1.48-1.77,1.76-2.72
		c1.08-3.72,2.01-7.43,4.11-10.95c1.67-2.82-0.95-5.86-5.05-6.47c-3.35-0.5-3.68-0.82-3.33-3.35c0.11-0.8,0.16-1.64,0.55-2.36
		c2.97-5.45,5.83-10.98,11.45-15.23c2.35-1.77,3.29-3.85,2.76-6.27c-0.65-2.97-1.56-5.9-2.27-8.85c-0.49-2.06-0.83-4.13-1.27-6.2
		c-0.12-0.58-0.27-1.18-0.58-1.7c-2.02-3.37-4.05-6.73-6.14-10.08c-1.83-2.94-1.88-6.02-1.24-9.13c0.37-1.81,0.98-2.08,3.51-1.93
		c0.87,0.05,1.73,0.17,3.26,0.32c-0.7-1.36-1.28-2.32-1.68-3.32c-0.29-0.74-0.81-1.76-0.41-2.26c1.19-1.5,0.23-2.44-0.91-3.47
		c-2.56-2.3-3.82-5-3.92-8.01c-0.07-1.92,0.78-2.53,3.27-2.46c2.92,0.08,5.22,1.01,6.89,2.93c3.71,4.28,6.88,8.76,8.86,13.69
		c0.31,0.77,0.58,1.54,0.86,2.32c2.51,7.05,4.95,14.12,7.57,21.14c0.82,2.2,1.79,4.47,3.33,6.4c4.37,5.46,9,10.8,13.7,16.09
		c1.15,1.29,2.99,2.21,4.49,3.31c1.77,1.29,3.53,2.6,5.28,3.88c-0.9,1.09-2,1.86-2.08,2.69c-0.07,0.75,1,1.55,1.52,2.35
		c1.47,2.24,2.98,4.46,4.34,6.73c1.01,1.7,0.13,2.85-2.27,2.72c-1.59-0.09-3.3-0.62-4.63-1.32c-2.03-1.07-3.74-2.49-5.66-3.69
		c-1.48-0.92-3.08-1.73-4.86-2.72c-0.52,0.79-0.98,1.19-1.05,1.63c-0.64,4.28-1.38,8.57-1.73,12.87c-0.16,1.97,0.38,3.99,0.78,5.96
		c0.57,2.81,3,4.32,6.53,3.72c4.7-0.81,9.32-1.9,13.9-3.04c1.12-0.28,2.19-1.1,2.9-1.87c6.08-6.64,11.95-13.39,18.11-19.97
		c9.29-9.93,8.16-8.64,8.07-19.02c-0.01-1.71-0.03-3.41-0.05-5.12c-0.02-1.5,0.99-2.22,2.88-2.22c1.04,0,2.09,0.03,3.12,0.15
		c3.63,0.4,4.05,0.86,4.16,3.68c0.09,2.3,0.26,4.6,0.62,6.88c0.11,0.68,0.96,1.29,1.47,1.94c0.83-0.39,1.73-0.71,2.46-1.19
		c1.36-0.87,2.47-2.03,3.96-2.71c1.74-0.8,2.24-1.78,2.05-3.23c-0.57-4.3-0.98-8.61-3.54-12.57c-0.17-0.27-0.3-0.56-0.41-0.84
		c-3.07-7.95-8.2-14.89-16.64-20.22c-0.79-0.5-1.36-1.19-2.22-1.96c1.67-1.39,0.61-2.61-0.19-4.01c-1.15-2-1.84-4.16-2.71-6.26
		c-0.82-2-1.54-4.02-2.45-5.99c-0.83-1.8-0.52-2.79,1.53-3.86c3.26-1.69,8.42-1.01,10.86,1.55c1.31,1.37,2.44,2.85,3.51,4.34
		c3.4,4.72,7.84,8.74,13.38,12.04c1.02,0.61,2.08,1.2,3.2,1.7c4.16,1.88,8.4,3.64,12.51,5.59c8.52,4.04,17.91,6.45,27.35,8.77
		c0.33,0.08,0.74-0.04,1.58-0.11c-1.14-0.96-2.08-1.73-2.97-2.52c-1.09-0.98-1.14-1.94,0.08-2.93c3.36-2.71,9.03-2.67,12.09,0.27
		c4.05,3.89,9.1,6.85,14.35,9.69c3.72,2.01,7.35,4.15,10.88,6.36c3.9,2.44,4.43,2.54,8.9,0.6c0.32-0.14,0.72-0.16,1.03-0.22
		c0.29,0.16,0.65,0.26,0.67,0.39c0.58,3.15,3.38,4.46,6.98,5.37c4.06,1.03,8,2.34,12.21,3.59c1.17-3.06-2.84-4.43-3.36-7.07
		c1.22-0.65,2.55-1.36,4.02-2.15c-0.44-0.73-0.75-1.37-1.19-1.96c-0.89-1.19-1.62-2.36,0.09-3.5c1.5-1,3.79-1.2,5.45-0.32
		c0.94,0.5,1.77,1.19,2.46,1.9c2.35,2.4,4.73,4.8,6.91,7.3c2.79,3.19,6.17,4.76,11.49,4.19c7.73-0.82,15.56-1.17,23.36-1.58
		c2.22-0.11,4.49,0.28,7.42,0.49c1.57-1.68,2.02-4.21,2.54-6.75c0.34-1.66,0.9-3.3,1.42-4.94c0.37-1.17,1.01-2.29,1.23-3.47
		c0.81-4.27,1.55-8.54,2.22-12.83c0.35-2.22,0.27-2.23-3.02-3.31c0.5-1.67,1.13-3.38,1.5-5.13c0.44-2.07,1.01-4.18,0.85-6.24
		c-0.14-1.73,0.24-3.15,1.51-4.5c2.35-2.49,1.57-5.05,0.42-8.1c-1.81,0.79-3.32,1.32-4.63,2.04c-2.22,1.23-4.3,2.6-6.49,3.87
		c-0.83,0.48-1.72,1.03-2.68,1.19c-0.9,0.15-2.11,0.01-2.82-0.38c-0.4-0.22-0.19-1.26,0.01-1.88c0.18-0.54,0.73-1.02,1.24-1.68
		c-2.02-0.88-3.34,0.15-4.82,0.52c-3.32,0.83-6.66,1.65-10.06,2.25c-0.89,0.16-2.67-0.3-2.89-0.79c-0.3-0.64,0.29-1.76,0.97-2.36
		c0.92-0.8,2.25-1.35,3.46-1.92c7.55-3.57,15.12-7.12,22.67-10.69c1.33-0.63,2.61-1.33,3.93-1.97c3-1.45,4.09-3.44,3.42-6.16
		c-0.75-3.05-1.04-6.18-1.82-9.22c-0.65-2.53,0.4-4.29,3.15-5.6c2.57-1.23,5.88-1.19,8.45,0.18c0.62,0.33,1.21,0.7,1.83,1.06
		c2.23-0.86,1.79-2.41,1.94-3.72c0.34-3.01,1.77-4.22,6.12-4.84c1.83,2.86-0.72,5.87,0.25,9.19c1.66-0.5,3.18-0.76,4.38-1.38
		c1.81-0.95,3.61-2.02,5.04-3.3c17.65-15.71,35.42-31.35,50.46-48.67c6.95-8.01,13.91-16.02,20.5-24.2
		c3.35-4.16,6.04-8.66,8.75-13.11c4.86-8,9.48-16.08,14.23-24.11c1.33-2.24,2.62-4.53,5.79-6.67c-0.13,1.27-0.07,1.92-0.29,2.5
		c-1.12,2.99-2.17,6-3.51,8.93c-4.8,10.5-9.74,20.96-14.54,31.47c-2.25,4.92-4.33,9.88-6.39,14.84c-1.54,3.73-2.93,7.49-4.35,11.25
		c-0.31,0.83-0.52,1.67-0.85,2.74c4.38-1.33,7.01-3.57,8.8-6.47c3.54-5.7,7.03-11.42,10.58-17.12c0.88-1.41,1.92-2.75,3.02-4.31
		c2.02,1.4,0.97,2.61,0.52,3.6c-1.19,2.65-2.49,5.29-4.04,7.83c-7.44,12.16-15,24.27-22.46,36.42c-3,4.9-5.89,9.84-8.73,14.79
		c-0.62,1.08-1.21,2.35-1.06,3.47c0.44,3.33-0.96,6.34-2.2,9.4c-1.47,3.64-3.23,7.22-4.41,10.92c-1.34,4.16-2.17,8.42-3.25,12.71
		c1.13,0.27,1.81,0.44,2.58,0.62c0.24,4.83,0.56,9.63,0.68,14.44c0.08,2.94-1.29,4.47-4.92,5.99c-0.36-0.51-0.73-1-1.07-1.52
		c-0.33-0.5-0.62-1.01-1.24-2.03c-0.42,1.29-0.77,2.02-0.89,2.76c-1.27,7.96-2.53,15.93-3.75,23.9c-0.75,4.88-1.72,9.75-2.06,14.65
		c-0.56,8.11-0.72,16.25-1,24.37c-0.07,1.95-0.29,3.82-3.17,5.12c4.29,2.08,8.07,4.24,12.23,5.78c1.9,0.7,4.65,0.53,6.85,0.16
		c5.95-1.02,9.9-4.24,13.2-7.97c0.42-0.47,0.82-1.18,0.68-1.69c-0.71-2.59,1.46-4.12,3.37-5.75c2.71-2.31,5.54-4.53,8.18-6.88
		c1.96-1.74,3.7-3.62,5.55-5.44c0.64-0.63,1.15-1.47,1.99-1.82c1.03-0.43,2.54-0.82,3.51-0.54c1.56,0.44,1.1,1.71,0.51,2.6
		c-0.94,1.42-2.13,2.75-3.16,4.14c-1.63,2.21-1.64,2.47,0.53,4.42c0.98,0.88,1.15,1.74,0.75,2.77c-0.28,0.74-0.53,1.49-0.89,2.54
		c1.38,0.18,2.48,0.33,3.57,0.48c3.19,0.44,4.61,2.18,3.05,4.33c-1.11,1.52-2.78,2.91-4.56,4.01c-4.62,2.84-4.78,3.01-1.77,6.79
		c0.75,0.94,1.65,1.8,2.49,2.69c1.73,1.83,1.63,3.2-0.45,4.77c-2.07,1.56-4.61,2.28-7.48,2.12c-2.34-0.13-4.69-0.3-6.97-0.67
		c-6.72-1.11-12.74,0.23-18.09,3.24c-5.04,2.84-9.86,5.92-14.67,9c-6.01,3.85-11.96,7.76-17.84,11.73
		c-3.13,2.11-5.97,4.48-9.08,6.61c-2.62,1.79-5.46,3.4-8.18,5.11c-1.17,0.73-2.91,1.27-2.12,2.83c0.73,1.44,2.49,1.89,4.18,1.69
		c4.11-0.48,8.18-1.2,12.27-1.83c1.53-0.24,3.07-0.72,4.58-0.67c1.12,0.04,2.21,0.75,3.32,1.16c-0.5,0.74-0.91,1.53-1.52,2.21
		c-0.35,0.39-1,0.65-1.58,0.86c-4.49,1.63-8.71,3.57-12.6,5.99c-1.22,0.75-3.13,0.87-4.75,1.2c-3.42,0.7-4.4,1.55-4.16,4.24
		c0.29,3.18,0.81,6.35,1.61,9.6c3.57-2.74,3-6.81,5.37-10c0.92,0.13,1.7,0.39,2.41,0.3c1.47-0.19,3.35-0.22,4.28-0.92
		c2.82-2.13,5.7-4.34,7.76-6.9c3.34-4.17,6.03-8.64,9.02-12.98c0.61-0.88,1.17-1.81,1.98-2.57c1.05-1,2.55-1.36,4.22-1.05
		c1.64,0.3,2.45,1.33,2.51,2.42c0.07,1.36,0.01,2.88-0.72,4.07c-3,4.89-6.11,9.75-9.49,14.49c-4.58,6.41-9.87,12.53-14.04,19.09
		c-2.6,4.09-3.71,8.74-5.46,13.15c-0.14,0.36-0.28,0.95-0.04,1.15c2.17,1.81,0.98,3.77,0.56,5.71c-0.09,0.39-0.19,0.81-0.13,1.2
		c0.66,4.27,1.35,8.53,2.05,12.97c1.47,0,2.49,0.08,3.48-0.01c3-0.27,5.42,0.46,7.09,2.41c2.1,2.45,4.97,4.03,8.54,5.01
		c1.28,0.35,2.38,1.1,3.51,1.64c-1.5,2.57-1.79,2.72-4.63,2.6c-6.4-0.27-6.39-0.27-4.69,4.5c0.41,1.16,0.79,2.34,1,3.52
		c0.89,5.1,2.71,9.99,5.18,14.78c1.34,2.6,2.11,5.37,3.22,8.04c1.28,3.05,2.58,6.11,4.02,9.11c1.74,3.63,1.79,3.67-2.42,6.16
		c0.6,0.89,1.15,1.87,1.88,2.77c3.39,4.2,7.4,8.02,12.19,11.32c4.66,3.21,9.4,6.36,14.25,9.4c1.58,0.99,3.57,1.62,5.42,2.35
		c4.04,1.62,8.12,3.19,12.16,4.8c0.81,0.32,1.56,0.73,2.31,1.13c1.21,0.64,2.43,1.33,1.89,2.67c-0.52,1.29-2,1.52-3.45,1.55
		c-3.51,0.07-7.03,0.05-10.55,0.06c-1.11,0-2.21,0-3.89,0c0.65,1.85,1.15,3.26,1.63,4.63c-3.04,1.23-5.41,1.08-7.78-0.75
		c-1.46-1.12-2.61-2.49-3.84-3.78c-1-1.05-1.91-2.15-2.86-3.23c-2.59-2.95-6.17-4.05-10.76-3.81c-14.69,0.78-29.38,1.52-44.08,2.13
		c-5.42,0.22-9.55,1.79-12.09,5.54c-1.2,1.77-2.2,3.63-3.49,5.36c-1.42,1.89-2.93,3.77-4.68,5.48c-3.03,2.96-3.24,3.79-0.8,6.98
		c0.86,1.12,1.8,2.2,2.78,3.26c0.73,0.78,1.49,1.69,0.45,2.41c-0.86,0.6-2.29,1.05-3.42,0.98c-1.48-0.08-2.9-0.73-4.51-1.17
		c-0.39,0.64-0.8,1.15-1,1.7c-0.35,0.96-0.4,2.01-0.86,2.93c-2.29,4.56-1.94,8.8,2.16,12.74c1.38,1.33,1.1,2.71-0.3,4.12
		c-0.91,0.91-1.72,2.12-1.8,3.22c-0.22,3.2-0.71,6.52,0.12,9.6c2.34,8.75,1.87,17.42-0.76,25.98c-1.98,6.47-0.63,12.29,3.34,18
		c1.04,1.49,1.79,3.13,2.3,4.78c0.27,0.86,0.12,2.33-0.57,2.69c-0.97,0.51-2.67,0.42-3.97,0.25c-1.1-0.15-2.08-0.79-3.13-1.2
		c-0.78-0.31-1.58-0.6-2.7-1.01c-0.34,1.17-0.5,2.15-0.91,3.07c-0.58,1.31-1.12,2.68-2.09,3.82c-1.36,1.59-2.02,3.24-1.88,5.1
		c0.09,1.2,0.29,2.4,0.34,3.6c0.15,4.11,0.14,8.22,0.41,12.32c0.13,1.87,0.38,3.84,1.28,5.55c1.79,3.44,3.88,6.81,6.17,10.06
		c7.15,10.14,14.28,20.29,23.3,29.57c1.39,1.43,2.14,3.22,3.45,4.7c2.78,3.15,5.76,6.2,8.61,9.31c1.87,2.05,3.76,4.1,5.46,6.23
		c0.98,1.22,1.44,2.64,0.16,3.97c-1.39,1.43-3.39,1.94-5.55,1.56c-1.62-0.28-3.25-0.79-4.64-1.48c-1.51-0.75-2.86-1.75-4.08-2.78
		c-6-5.04-11.54-10.36-16.18-16.2c-0.79-1-1.64-1.97-3.17-2.81c0,0.61-0.15,1.26,0.02,1.84c2.37,7.74,5.1,15.39,11.1,22.03
		c7.07,7.82,14.12,15.66,21.35,23.39c23.15,24.77,47.76,48.67,72.6,72.44c1.63,1.56,3.43,3.02,5.17,4.51
		c1.58,1.36,3.47,1.86,5.92,1.72c5.91-0.34,9.29,1.72,10.6,6.2c0.32,1.07,0.66,2.17,0.69,3.26c0.13,3.91,2.1,7.23,5.35,10.11
		c3.92,3.48,7.99,6.86,11.95,10.31c1.43,1.24,2.72,2.58,4.08,3.88c-5.31,3.03-10.46,2.91-14.7-0.19c-2.36-1.73-4.6-3.55-6.87-5.35
		c-2.54-2.02-5.53-3.42-9.21-3.59c-5.27-0.25-9.05-2.32-11.98-5.49c-8.23-8.91-16.3-17.91-24.68-26.74
		c-8.38-8.83-16.76-17.67-25.67-26.18c-13.49-12.89-27.6-25.39-41.09-38.29c-6.36-6.08-12.11-12.57-17.69-19.1
		c-4.6-5.38-7.68-11.39-10.08-17.57c-2.35-6.07-5.02-12.02-8.57-17.75c-2.18-3.52-3.57-7.32-5.39-10.97
		c-1.06-2.13-2.28-4.21-3.76-6.92c-0.72,1.19-1.18,1.74-1.38,2.33c-0.86,2.63-1.64,5.27-2.47,7.9c-0.5,1.59-1.58,2.81-3.94,2.82
		c-2.62,0.02-5.38-0.02-7.13-1.79c-0.59-0.59-0.52-1.74-0.34-2.57c0.54-2.47,1.21-4.93,1.96-7.37c2.93-9.51,4.44-19.12,4.39-28.92
		c-0.06-12.36-0.5-24.68-3.06-36.91c-0.35-1.68-0.85-3.35-1.39-5c-2.06-6.34-3.51-12.74-4.11-19.28c-0.24-2.64-1.53-5.24-2.42-7.84
		c-0.49-1.45-1.49-2.85-1.63-4.31c-0.34-3.54-1.74-6.86-2.86-10.26c-0.99-3-1.83-6.11-1.92-9.19c-0.25-8.79-2.79-17.3-4.75-25.89
		c-0.76-3.34-1.9-6.62-1.36-10.12c0.28-1.83-0.53-3.76-0.89-5.63c-0.22-1.15-1.25-1.62-2.5-1.07c-3.37,1.48-7.04,2.75-7.93,6.19
		c-0.27,1.05-1.01,2.06-1.73,3.01c-0.94,1.23-2.05,2.32-0.61,3.81c0.29,0.3-0.2,1.1-0.43,1.64c-0.44,1.04-1.29,2.04-1.38,3.09
		c-0.45,5.43-0.33,10.84,1.98,16.08c0.4,0.91,1.06,1.75,1.88,3.07c1.07-0.87,1.85-1.34,2.35-1.94c1.26-1.52,2.42-3.1,3.59-4.66
		c0.83-1.11,1.94-1.85,3.68-1.96c3.16-0.2,5.13,1.47,4.06,3.75c-0.97,2.07-2.12,4.13-3.64,5.99c-5.28,6.47-6.62,13.85-8.53,21.1
		c-0.82,3.09,0.85,5.7,3.01,8.17c1.07,1.22,2.16,2.43,3.27,3.68c-2.03,1.72-3.92,0.97-5.43,0.15c-1.9-1.03-3.5-2.38-5.21-3.62
		c-0.92-0.66-1.8-1.36-3.07-2.33c-1.49,2.35-1.93,4.53-2,6.66c-0.13,4.1-0.09,8.23,0.24,12.32c0.45,5.6,1.42,11.17,1.01,16.82
		c-0.35,4.96,1.19,9.79,3.07,14.5c2.99,7.48,6.1,14.93,9.41,22.33c3.16,7.06,4.87,14.35,6.43,21.69c0.19,0.89,0.31,1.8,0.61,2.67
		c3.5,10.27,7.01,20.54,10.57,30.81c0.33,0.96,0.79,1.94,1.47,2.77c3.84,4.63,6.31,9.77,7.83,15.02c1.34,4.64,3.31,9.05,5.27,13.51
		c2.49,5.64,6.09,10.85,9.94,15.99c2.66,3.56,5.21,7.19,7.36,10.94c2.2,3.83,5.03,7.24,8.84,10.2c1.19,0.93,2.29,1.94,3.61,2.75
		c10,6.09,15.87,14.49,21.85,22.86c1.8,2.53,4.16,4.82,6.29,7.21c1.7,1.9,3.58,3.71,5.12,5.68c3.08,3.95,5.99,7.98,8.97,11.98
		c0.26,0.35,0.53,0.7,0.71,1.07c0.83,1.74,0.12,2.66-2.34,2.91c-2.96,0.3-5.43-0.47-7.18-2.34c-2.22-2.36-4.41-4.73-6.46-7.17
		c-1.89-2.25-4.23-4.04-7.43-5.16c-2.81-0.98-4.92-2.54-6.58-4.56c-2.36-2.86-4.88-5.64-7.93-8.28c0,1.22,0.3,2.5-0.08,3.65
		c-0.37,1.12-1.64,2.05-2.16,3.17c-0.69,1.49-1.05,3.07-1.6,4.78c-2.22-0.4-4.36-0.76-6.47-1.19c-1.66-0.34-2.55-1.26-2.96-2.54
		c-1.32-4.08-2.71-8.15-4.05-12.23c-0.67-2.04-1.45-4.08-1.87-6.15c-1-4.91-3-9.56-6.04-13.93c-4.74-6.81-9.6-13.56-14.39-20.34
		c-0.99-1.41-1.98-2.83-2.84-4.28c-5.88-9.95-11.51-19.99-18.81-29.42c-2.39-3.08-4.15-6.48-5.97-9.8
		c-4.05-7.4-7.76-14.91-11.96-22.25c-5.39-9.42-8.6-19.35-12.35-29.16c-1.07-2.79-2.16-5.58-3.3-8.35c-0.33-0.8-0.87-1.54-2.06-2.22
		c-0.55,3.63-1.03,7.26-1.66,10.88c-2.25,12.8,0.44,25.42,2.25,38.07c0.17,1.18,0.7,2.34,1.17,3.49
		c4.02,9.75,8.08,19.49,12.09,29.25c0.41,1.01,0.56,2.08,0.83,3.11c-3.86,0.75-6.95-0.06-8.76-2.3c-0.96-1.18-1.55-2.53-2.35-3.79
		c-2.11-3.33-4.22-6.65-6.36-9.97c-1.62-2.51-3.5-4.94-4.87-7.53c-2.6-4.92-4.95-9.93-7.33-14.92c-0.94-1.98-1.78-3.93-3.75-5.54
		c-2.14-1.76-2.06-4.02-1.7-6.27c0.6-3.68,1.17-7.37,1.74-11.05c0.53-3.41-0.13-4.36-4.1-6.02c-0.8-0.33-1.63-0.64-2.4-1.01
		c-2.21-1.06-3.75-2.48-4.02-4.55c-0.3-2.31-1.59-4.23-3.85-5.74c-2.31-1.53-3.24-3.53-3.73-5.78
		c-4.29-19.69-8.64-39.37-12.99-59.06c-0.42-1.92-1.03-3.74,1.59-5.2c0.68-0.38,0.72-1.64,0.72-2.5c0.01-1.5-0.38-3-0.35-4.5
		c0.05-2.59-0.44-4.93-2.84-6.97c-1.7-1.45-1.62-3.41-0.92-5.17c1.56-3.89,1.08-7.73,0.08-11.61c-1.47-5.71-2.9-11.42-4.34-17.14
		c-0.15-0.59-0.36-1.18-0.42-1.78c-0.19-2.04,1.31-3.06,3.89-2.44c1.31,0.31,2.47,1.05,3.61,1.69
		C758.02,497.87,758.8,498.52,760.41,499.65z M804.15,527.03c2.44-1.21,2.07-2.61,2.14-3.87c0.28-5.21,0.51-10.42,0.78-15.62
		c0.06-1.22,0.17-2.42-1.59-3.03c-3.74,1.57-5.72,1.86-8.53,1.24c-3.44-0.75-4.76-2.98-3.01-5.36c0.96-1.3,2.34-2.42,3.32-3.71
		c0.82-1.1,1.88-2.35,1.84-3.51c-0.05-1.64,0.68-2.63,2.26-3.52c1.04-0.59,1.98-1.3,2.92-1.99c2.53-1.86,3.21-4.04,1.9-6.58
		c-0.42-0.8-0.69-1.65-1.1-2.63c0.9-0.22,1.47-0.41,2.07-0.49c1.82-0.25,4.28,1.03,5.34-0.71c0.77-1.26,0.43-2.93,0.56-4.42
		c0.03-0.3-0.06-0.6-0.07-0.9c-0.07-6.85,0.34-13.64,3.66-20.14c1.65-3.22,1.47-6.4-0.03-9.69c-1.94-4.25-3.67-8.58-5.13-12.94
		c-1.39-4.16-1.66-8.46-1.86-12.73c4.04-0.4,6.29,0.58,7.69,3.5c1.08,2.25,1.75,4.62,2.72,6.91c0.46,1.07,1.2,2.07,1.81,3.1
		c0.32-0.01,0.64-0.03,0.96-0.04c0.46-1.08,1.03-2.13,1.37-3.23c0.75-2.44,1.3-4.92,2.1-7.35c0.56-1.7,1.42-1.96,3.4-1.26
		c2.88,1.02,4.88,2.56,5.46,5.1c0.67,2.92,0.21,5.77-0.15,8.68c-1.16,9.28-2.09,18.58-3.09,27.88c-0.14,1.25,0.11,2.4,1.59,3.2
		c1.73,0.93,2.04,2.18,1.52,3.72c-0.17,0.5,0.29,1.13,0.52,1.93c1.47-1.82,2.68-3.27,3.8-4.75c0.24-0.32,0.27-0.77,0.26-1.16
		c-0.09-2.59-0.26-5.18-0.34-7.77c-0.3-9.33-0.59-18.65-0.87-27.98c-0.1-3.39-0.82-6.81,0.81-10.13c0.26-0.54,0.12-1.19,0.16-1.79
		c0.84-11.12,1.66-22.23,2.54-33.35c0.34-4.33,1.16-8.59,4.11-12.42c0.46-0.6,0.75-1.29,0.98-1.96c0.42-1.22,0.43-2.41-1.01-3.29
		c-1.39-0.85-2.95-0.83-4.42-0.25c-1.38,0.54-2.67,1.24-3.94,1.93c-4.03,2.21-7.98,4.52-12.06,6.67c-2.85,1.5-5.46,1.13-7.61-0.85
		c-1.71-1.57-1.38-2.82,1.34-4.9c1.38-1.05,2.93-1.94,3.17-3.65c0.07-0.52,1.07-1.08,1.8-1.4c1.12-0.49,2.38-0.8,3.59-1.18
		c1.6-0.5,2.72-1.37,2.58-2.72c-0.25-2.47,1.6-3.25,4.27-3.87c5.97-1.37,11.03-4.02,15.7-7.15c1.89-1.27,2.9-2.82,2.78-4.76
		c-0.77-11.95,2.77-23.81,1.24-35.77c-0.15-1.2,0.23-2.24,1.96-2.58c2.25-0.45,2.95-1.72,3.37-3.31c0.69-2.58,0.27-4.96-1.43-7.26
		c-1.8-2.44-3.53-4.92-5.25-7.39c-0.49-0.71-1.06-1.44-1.21-2.2c-0.14-0.71-0.11-1.78,0.45-2.13c0.59-0.37,1.92-0.19,2.85-0.02
		c0.72,0.13,1.31,0.63,1.98,0.94c1.06,0.5,2.13,0.98,3.35,1.54c1.14-2.27,2.17-4.19,3.06-6.14c1.69-3.69,3.39-7.37,4.92-11.1
		c0.68-1.66,0.08-2.34-2.1-2.96c-0.85-0.24-1.82-0.25-2.64-0.52c-1.63-0.54-3.21-1.18-4.79-1.8c-0.8-0.32-1.53-0.77-2.36-1.02
		c-7.3-2.15-14.56-4.4-21.95-6.35c-3.02-0.8-6.31-1.11-9.52-1.31c-4.4-0.27-6.46-1.49-7.35-4.95c-0.78-0.25-1.6-0.56-2.45-0.78
		c-13.09-3.39-26.2-6.71-39.26-10.17c-4.3-1.14-8.41-2.68-12.66-3.93c-2.16-0.63-4.41-1.26-6.68-1.44
		c-2.42-0.19-4.55-0.65-6.59-1.64c-1.24-0.61-2.64-1.03-3.97-1.54c-0.26,0.88-0.08,1.32,0.22,1.7c1.71,2.12,3.37,4.26,5.21,6.31
		c0.79,0.87,1.97,1.54,2.97,2.29c1,0.75,2.14,1.41,2.97,2.26c1.57,1.6,2.89,3.34,4.46,4.94c3.81,3.85,7.12,7.91,9.33,12.47
		c1.06,2.18,1.99,4.34,0.44,6.66c-2.02,3.02-1.96,3.05,1.76,4.94c0.98,0.5,1.94,1.02,2.95,1.47c9.46,4.26,15.07,11.23,21.22,17.83
		c1.07,1.15,0.5,2.07-0.74,2.87c-1.57,1.01-3.32,1.16-5.1,0.45c-1.61-0.65-3.1-1.49-4.7-2.16c-1.17-0.49-2.44-0.84-4.37-1.49
		c0.24,2.92,0.34,5.21,0.63,7.48c0.27,2.14-0.14,4.01-2.63,5.3c-1.62,0.85-1.58,1.95-0.84,3.17c3.66,6.1,7.26,12.22,11.01,18.28
		c0.59,0.96,1.6,1.94,2.75,2.48c3.35,1.57,4.64,3.94,5.18,6.73c0.33,1.69,1.04,3.39,0.92,5.05c-0.27,4,1.66,7.44,3.81,10.9
		c1,1.61,2.2,2.91,4.54,3.47c2.34,0.56,3.21,1.9,3.04,3.72c-0.18,1.9-0.27,3.81-0.52,5.7c-0.4,2.99-0.92,5.98-1.34,8.97
		c-0.19,1.33-0.14,2.62,1.36,3.58c1.9,1.21,1.84,2.72,1.23,4.38c-0.93,2.51-1.71,5.05-2.56,7.57c-2.1,6.21-2.44,12.7-5.25,18.8
		c-1.13,2.45-1.9,5.01-2.78,7.53c-1.42,4.07-2.82,8.14-4.2,12.22c-0.51,1.5-0.85,2.98,1.11,4.1c1.87,1.07,1.75,2.5,1.39,4.07
		c-1.66,7.4-3.3,14.77-2.79,22.37c0.45,6.74-0.87,13.41-3.44,19.9c-0.69,1.75-1.1,3.56,0.2,5.26c2.55,3.32,0.93,6.24-1.76,8.83
		c-1.26,1.22-1.7,2.31-1.72,3.78c-0.03,1.87-0.58,3.73-0.75,5.61c-0.14,1.47-0.6,3.11,0.03,4.39c1.94,3.93,3.84,7.97,6.71,11.51
		c2.6,3.21,4.43,6.54,5.91,10.07C802.51,524.87,803.38,525.85,804.15,527.03z M581.43,483.98c-4.27,1.33-4.26,1.33-4.31,3.84
		c-0.03,1.6,0.05,3.22-0.18,4.81c-1.2,8.15-2.45,16.3-3.81,24.43c-0.15,0.89-0.83,2.02-1.75,2.48c-1.87,0.93-2.1,2.17-2.05,3.62
		c0.22,6.42,0.4,12.84,0.63,19.26c0.11,3.09,1.61,5.73,3.66,8.42c3.02,3.95,5.62,8.14,7.77,12.41c1.38,2.75,1.64,5.84,2.34,8.79
		c0.33,1.37,1.13,2.53,2.8,3.07c4.12,1.34,6.39,3.99,8.54,6.77c5.15,6.68,11.37,12.71,18.45,18.23c1.36,1.06,2.51,2.29,3.73,3.46
		c2.69,2.57,5.19,5.27,8.07,7.71c3.85,3.27,8.02,6.31,11.96,9.52c2.03,1.65,3.87,3.45,5.8,5.18c1.13-0.73,2.08-1.35,3.54-2.29
		c0.5,1.26,0.97,2.13,1.18,3.04c0.18,0.78,0.06,1.6,0.1,2.4c0.19,4.17,2.84,6.99,7.91,8.44c1.59,0.45,3.26,0.77,4.75,1.36
		c0.8,0.32,1.85,1.1,1.85,1.67c-0.05,4.78,3.43,8.32,6.76,11.92c5.23,5.67,9.82,11.59,12.87,18.17c0.56,1.21,1.57,2.3,2.4,3.43
		c1.96,2.7,4.01,5.36,5.89,8.1c3.47,5.03,6.86,10.1,10.25,15.17c1.61,2.4,3.25,4.78,4.71,7.23c4.62,7.74,9.14,15.51,13.76,23.25
		c0.5,0.83,1.43,1.51,2.17,2.26c0.29-0.07,0.58-0.14,0.87-0.2c0.14-0.95,0.39-1.9,0.39-2.84c-0.02-3.71-0.22-7.42-0.16-11.13
		c0.18-11.23,0.52-22.46,0.68-33.69c0.18-12.66-0.39-25.26-3.78-37.73c-1.28-4.7-2.05-9.5-2.6-14.28c-0.27-2.31-1.02-4.25-2.85-6.07
		c-1.67-1.65-3.46-3.33-4.53-5.23c-3.54-6.24-6.77-12.59-10.13-18.9c-0.74-1.39-1.17-2.96-2.29-4.13c-2.88-2.98-4.1-6.44-5.47-9.89
		c-1.12-2.83-3.55-4.89-7-6.17c-2.74-1.02-4.46-0.64-5.79,1.47c-1.86,2.95-4.26,5.83-3.16,9.4c0.11,0.36-0.01,0.82-0.22,1.16
		c-1.34,2.16-0.79,4.29-0.08,6.46c0.73,2.24,1.33,4.5,1.97,6.75c0.84,2.93,1.56,5.9,4.75,8c-4.09,2.25-7.92,2.71-11.66-0.13
		c-0.45-0.34-1.1-0.54-1.66-0.78c-3.04-1.32-4.33-3.35-4.23-6c0.04-1.2,0.09-2.42-0.16-3.6c-0.28-1.32-1.86-2.12-3.05-1.42
		c-1.86,1.11-3.13,0.34-4.59-0.27c-2.3-0.95-4.55-1.96-6.89-2.84c-2.27-0.85-3.59-2.16-4.31-4.02c-1.35-3.49-3.61-6.63-6.43-9.57
		c-1.22-1.27-2.21-2.72-2.93-4.2c-1.87-3.85-3.52-7.77-5.31-11.64c-0.45-0.97-1.1-1.87-1.66-2.81c-0.3,0.02-0.61,0.04-0.91,0.06
		c-0.49,0.99-1.1,1.96-1.45,2.97c-1.07,3.1-2.02,6.23-3.04,9.34c-0.34,1.02-0.92,1.92-2.51,1.99c-1.63,0.07-2.78-0.6-3.37-1.69
		c-0.49-0.92-0.83-1.91-1-2.89c-0.43-2.49-0.82-4.98-1.04-7.48c-0.34-3.8-1.32-7.7-0.6-11.39c1.36-7.02,2.99-14.08,7.09-20.57
		c0.92-1.46,1.88-2.83,1.04-4.57c-0.24-0.49,0.22-1.69,0.65-1.78c2.99-0.66,2.6-2.49,2.68-4.16c0.17-3.71,0.16-7.43,2.38-10.89
		c0.38-0.59,0.3-1.36,0.35-2.05c0.33-4.79,0.57-9.58,1.01-14.37c0.11-1.17,0.57-2.43,1.34-3.43c2.97-3.86,4.06-8.23,5.96-12.38
		c0.99-2.17,1.66-4.3,4.46-5.77c2.29-1.2,2.08-2.96-0.16-4.26c-1.54-0.89-3.3-1.8-5.13-2.1c-7.63-1.25-15.31-2.3-22.99-3.35
		c-1.98-0.27-3.52,0.37-4.5,1.81c-2.75,4.08-4.82,8.24-3.33,12.97c3.43,10.85,3.58,22.08,6.29,33.02c0.27,1.09,0.11,2.5-0.59,3.43
		c-1.35,1.78-1.4,3.57-1.34,5.5c0.07,2.3-0.02,4.61-0.35,6.89c-0.13,0.88-0.84,2.15-1.73,2.44c-2.58,0.84-3.28,2.42-3.83,4.22
		c-0.3,0.97-0.6,1.96-1.1,2.88c-1.38,2.55-4.37,2.87-6.7,0.74c-1.8-1.66-2.34-3.49-1.41-5.61c2.24-5.13,2.56-10.41,2.05-15.76
		c-0.63-6.6-1.12-13.21-1.7-19.82c-0.04-0.43-0.34-0.85-0.74-1.8c-2.04,1.75-3.64,3.15-5.28,4.53c-1.71,1.45-3.82,1.53-5.24-0.07
		c-0.91-1.02-1.54-2.36-1.66-3.6c-0.33-3.5-0.28-7.01-0.47-10.52C582.01,486.99,581.68,485.64,581.43,483.98z M883.46,456.37
		c1.65-0.59,3.06-1.26,4.6-1.61c1.61-0.36,3.33-0.45,5.01-0.6c17.21-1.49,34.43-2.96,51.64-4.45c1.81-0.16,3.65-0.27,5.4-0.62
		c1.02-0.21,2.46-0.75,2.67-1.35c0.22-0.65-0.54-1.73-1.29-2.28c-1.1-0.81-2.5-1.44-3.89-1.93c-4.73-1.68-9.55-3.22-14.26-4.92
		c-1.49-0.54-2.99-1.29-4.07-2.23c-1.62-1.4-0.82-2.8,1.6-2.85c1.79-0.04,3.6,0.33,5.4,0.5c1.75,0.16,3.54,0.75,5.49-0.38
		c-1.36-2.5-3.61-4.59-6.23-6.03c-4.07-2.22-6.09-5.4-8.44-8.49c-1.25-1.65-2.42-3.33-3.74-4.94c-0.65-0.8-1.54-1.47-2.4-2.27
		c-0.8,0.43-1.35,0.59-1.59,0.89c-3.31,4.07-6.91,8.01-8.65,12.74c-1.06,2.89-2.43,5.72-3.91,8.49c-2.36,4.43-7.22,7.01-12.36,9.26
		c-2,0.87-5.23,0.32-6.52-0.87c-1.75-1.62,0.11-2.7,0.95-4c1.77-2.77,3.37-5.62,5.02-8.44c0.53-0.91,0.71-2.04,1.53-2.72
		c3.89-3.18,4.67-7.05,4.61-11.16c-0.08-5.15,0.97-10.19,2.79-15.14c0.68-1.83,1.37-3.67,1.83-5.54c1.29-5.24,2.39-10.46,0.24-15.77
		c-1.39-3.44-2.44-6.97-3.55-10.47c-0.34-1.06-1-2.4-0.48-3.23c2.11-3.42,0.64-6.72,0.35-10.14c-0.42-4.97,0.21-10,0.42-15
		c0.07-1.6,0.11-3.21,0.35-4.81c0.43-2.82-2.03-2.88-4.07-1.93c-0.94,0.43-1.59,1.25-2.33,1.92c-1.42,1.27-2.72,2.63-4.23,3.82
		c-1.36,1.07-3.05,1.89-4.39,2.98c-0.74,0.6-1.42,1.52-1.45,2.31c-0.06,1.55-0.96,2.43-2.72,2.94c-1.76,0.51-2.52,1.44-2.77,2.94
		c-0.87,5.36-1.75,10.74-3.03,16.05c-1.11,4.62-1.32,9.2,0.13,13.73c1.33,4.18,2.91,8.33,4.85,12.36c2.04,4.22,4.74,8.25,6.96,12.42
		c1.33,2.5,2.4,5.09,3.38,7.68c0.24,0.64-0.05,1.96-0.52,2.1c-1.06,0.31-2.49,0.29-3.59,0c-0.88-0.23-1.65-0.98-2.19-1.64
		c-1.66-2.03-3.2-4.13-4.76-6.21c-1.01-1.35-1.98-2.73-3.28-4.53c-0.43,1.83-0.43,3.18-1.1,4.29c-0.85,1.42-1.33,2.74-1.05,4.31
		c0.24,1.37-0.72,2.27-2.56,2.56c-0.73,0.11-1.42,0.36-2.45,0.63c0,1.15,0,2.24,0,3.32c-0.01,8.12,0.26,16.25-0.09,24.37
		c-0.4,9.4,1.46,18.6,3.2,27.82c0.24,1.27,0.56,2.55,2.13,3.36c7.94-3.02,14.77-6.75,18.73-13.47
		C890.77,459.36,886.4,459.89,883.46,456.37z M511.17,602.35c0.96-1.58,1.78-2.41,1.96-3.31c1.41-7.24,2.68-14.49,4.02-21.73
		c0.81-4.36,1.48-8.75,2.61-13.06c0.52-1.98,0.34-3.4-1.56-4.88c-2.57-2-2.87-4.31-0.98-6.87c1.93-2.61,3.5-5.38,5.28-8.06
		c2.91-4.4,5.45-8.88,6.47-13.81c0.26-1.26,1.06-2.46,1.69-3.67c1.83-3.5,2.72-7.24,2.08-10.87c-1.15-6.55-3.14-13.01-4.74-19.51
		c-0.4-1.62-1.4-2.78-3.51-3.28c-1.73-0.42-3.01-1.22-3.43-2.63c-1.34-4.49-3.08-8.94-3.85-13.49c-0.95-5.66-1.06-11.4-1.57-17.1
		c-0.19-2.15-0.95-4.18-2.99-5.74c-1.33-1.02-1.58-2.24-1.64-3.57c-0.13-3.01-0.28-6.02-0.49-9.02c-0.05-0.7-0.39-1.4-0.7-2.44
		c-3.98,3.11-5.14,6.49-4.71,10.22c0.24,2.06,0.45,4.19,1.34,6.11c0.64,1.37,1.04,2.58,0.89,4.03c-0.2,1.98-0.22,3.99-0.07,5.98
		c0.18,2.4,0.73,4.79,0.9,7.19c0.2,2.68-1.97,4.29-5.26,3.75c-2.53-0.41-3.93,0.33-5.17,1.83c-3.61,4.34-5.92,8.9-4.97,14.21
		c0.16,0.88-0.17,2.16-0.94,2.72c-2.14,1.58-2.09,3.28-1.44,5.25c0.97,2.91,2.04,5.82,2.63,8.79c0.74,3.66,1.17,7.36,1.48,11.06
		c0.18,2.16-0.9,2.69-3.57,2.21c-0.83-0.15-1.67-0.26-2.77-0.43c-0.52,2.27,0.42,4.18,0.88,6.11c0.92,3.76,1.73,7.47,0.76,11.34
		c-0.4,1.61-0.18,3.47,0.48,5.04c1.31,3.13,2.59,6.4,4.83,9.16c5.09,6.27,7.81,13.11,9.43,20.25c1.37,6.02,2.14,12.12,3.31,18.18
		c0.38,1.95,0.54,3.77-1.49,5.16C507.92,599.02,509.22,600.35,511.17,602.35z M668.34,376.87c-0.4,0.01-0.8,0.01-1.21,0.02
		c-0.42,0.91-0.92,1.8-1.23,2.73c-0.61,1.85-1.03,3.73-1.69,5.56c-0.75,2.07-2.1,2.68-5.32,2.67c-3.04-0.01-4.09-0.54-4.76-2.71
		c-0.74-2.44-1.35-4.91-1.92-7.38c-1.5-6.59-1.31-13,3.74-18.83c0.95-1.09,1.1-2.24,0.17-3.4c-2.95-3.68-3.78-7.84-4.75-12
		c-0.71-3.04-1.6-6.13-3.13-8.97c-1.45-2.7-1.74-5.28-1.7-8.15c0.04-2.81-0.86-5.76-2.17-8.41c-1.52-3.05-3.98-5.83-5.98-8.74
		c-0.79-1.15-1.28-2.44-2.21-3.51c-0.56-0.64-1.68-1.35-2.59-1.38c-1.45-0.05-2.19,0.95-2.34,2.04c-0.11,0.8-0.12,1.6-0.17,2.4
		c-0.39,6.11-0.56,12.24-1.22,18.33c-1.36,12.59-2.96,25.17-4.52,37.75c-0.22,1.79-0.46,3.63-1.2,5.32
		c-1.83,4.13-1.88,8.26-0.74,12.46c0.53,1.96,1.2,3.91,1.57,5.89c0.55,2.89,2.28,5.26,4.65,7.48c3.14,2.94,6.04,6.04,9.13,9.01
		c3.74,3.59,7.58,7.13,11.38,10.69c0.58,0.54,1.25,1.04,1.7,1.64c2.22,2.94,1.01,5.26-3.01,6.25c-2.55,3.99-4.91,7.92-4.71,12.76
		c4.95-1.24,9.48-2.45,14.06-3.5c3.49-0.8,5.89-2.42,7.45-4.92c1.87-2.98,3.74-5.97,5.8-8.87c3.17-4.45,5.27-9.13,6.27-14.15
		c0.57-2.86,0.35-5.54-0.9-8.27c-1.52-3.3-2.8-6.67-4.12-10.03c-0.91-2.3-1.63-4.65-2.58-6.94
		C669.69,378.72,668.93,377.81,668.34,376.87z M363.09,341.77c-1.11,0.83-2.2,1.31-2.63,2.03c-2.02,3.36-4.05,6.74-5.69,10.21
		c-1.47,3.1-2.5,6.33-3.61,9.52c-0.91,2.61-1.83,5.23-2.44,7.89c-3.32,14.33-5.47,28.78-7.05,43.28c-0.23,2.08-1.09,4.11-1.59,6.18
		c-0.38,1.56-0.94,3.14-0.95,4.71c-0.03,6.32,0.35,12.64,0.15,18.96c-0.25,7.85,0.29,15.64,1.93,23.39c0.2,0.97,0.41,2.1,1.17,2.8
		c1.59,1.47,2.08,3.18,2.74,4.91c1.03,2.73,2.13,5.47,4.77,8.56c0.83-3.62,1.53-6.55,2.17-9.49c2.1-9.69,3.64-19.48,7.85-28.83
		c0.71-1.59,0.92-3.03-0.56-4.57c5.88-3.19,7.72-7.6,7.41-12.72c-0.03-0.49,0.09-1.01,0.3-1.48c0.52-1.11,1.48-1.96,3.11-1.94
		c1.77,0.02,2.95,0.8,3.2,2.18c0.16,0.89,0.15,1.8,0.1,2.7c-0.53,8.32-1.06,16.63-1.68,24.94c-0.14,1.89-0.65,3.77-0.99,5.65
		c-0.11,0.62-0.22,1.24-0.39,2.14c3.26-2.45,6.5-6.24,7.35-8.72c0.4-1.15,0.86-2.42,0.63-3.55c-0.63-3.08,0.22-5.96,1.27-8.87
		c0.35-0.96,0.46-1.97,0.58-2.97c1.1-8.77-0.02-17.23-5.84-25.05c-0.64-0.87-1.16-1.8-1.64-2.73c-4.31-8.28-8.61-16.57-12.88-24.86
		c-0.7-1.37-1.46-2.78-0.16-4.29c2.52,0.22,4.09,1.21,5.12,2.89c0.72,1.17,1.43,2.48,2.63,3.31c3.21,2.24,5.17,4.99,6.58,8.06
		c0.68,1.49,1.94,2.27,4.49,2.1c0.16-0.9,0.46-1.75,0.42-2.6c-0.13-2.61-0.34-5.21-0.64-7.81c-0.15-1.28-0.09-2.87-1.03-3.71
		c-0.9-0.79-2.98-0.83-4.56-1.1c-3.41-0.59-4.54-2.02-3.59-4.59c0.35-0.95,0.93-1.96,0.81-2.89c-0.49-3.88,1.1-7.3,3.34-10.66
		c1.12-1.68,2.12-3.47,2.67-5.3c0.57-1.88,0.54-3.87-1.88-5.83c-1.33,2.55-2.46,4.77-3.63,6.98c-0.95,1.8-1.94,2.14-4.2,1.5
		c-2.95-0.84-4.44-2.78-3.71-5.28c0.65-2.25,1.75-4.42,2.41-6.66c0.33-1.13,0.38-2.38,0.12-3.52
		C364.71,345.2,363.93,343.81,363.09,341.77z M379.31,571.96c0.5-2.24,0.83-3.91,1.24-5.56c1.99-7.88,4.13-15.74,4.08-23.83
		c0-0.2,0.05-0.4,0.07-0.6c0.19-2.38,1.24-4.48,3.18-6.35c0.79-0.76,1.5-1.66,1.87-2.58c3.47-8.52,6.87-17.06,10.25-25.59
		c0.98-2.47,0.86-2.59-2.21-3.5c-3.57-1.06-4.03-2.33-1.34-4.32c1.24-0.92,1.94-1.64,1.3-3.09c-0.71-1.61,0.11-2.37,2.32-2.69
		c0.88-0.13,1.81-0.06,2.72-0.05c4.12,0.05,5.49-0.5,6.59-3.53c1.46-4.05,2.95-8.14,3.64-12.29c1.81-10.84,3.15-21.73,4.76-32.6
		c1.08-7.28,2.32-14.54,3.44-21.81c0.14-0.91,0.02-1.85,0.02-2.78c-0.32-0.02-0.65-0.05-0.97-0.07c-1.44,3.34-3.19,6.68-2.91,10.27
		c0.12,1.57-0.19,2.69-1.44,3.8c-3.72,3.31-6.2,7.11-8.14,11.22c-2.01,4.23-4.54,8.32-6.82,12.48c-1.97,3.61-4.15,7.16-5.78,10.86
		c-3.13,7.09-7.46,13.63-13.11,19.75c-3.53,3.82-6.79,7.89-9.33,12.14c-4.51,7.56-8.48,15.32-12.47,23.05
		c-1.09,2.12-1.74,4.43-2.11,6.7c-2.52,15.48,4.69,28.32,18.31,39.37C377.07,570.85,377.88,571.16,379.31,571.96z M978.21,103.93
		c-0.35-0.13-0.7-0.25-1.06-0.38c-2.73,2.9-5.47,5.79-8.2,8.69c-11.17,11.85-22.34,23.7-35.09,34.6
		c-4.71,4.02-9.22,8.18-13.86,12.24c-3.33,2.92-5.11,6.15-4.68,10.16c0.31,2.88,0.04,5.81-0.09,8.72
		c-0.29,6.21-0.69,12.42-0.96,18.63c-0.05,1.08-0.1,2.38,0.6,3.21c2.36,2.78,1.76,5.73,1.54,8.74c-0.31,4.1-0.4,8.2-0.56,12.3
		c-0.15,4.01-0.15,8.02-0.42,12.02c-0.24,3.5-0.8,6.98-1.1,10.48c-0.05,0.59,0.34,1.57,0.87,1.75c0.81,0.27,2.06,0.19,2.88-0.12
		c0.71-0.26,1.23-1.01,1.59-1.62c0.48-0.82,0.7-1.72,1.06-2.58c5.23-12.18,7.98-24.93,14.26-36.87c0.15-0.28,0.28-0.57,0.31-0.87
		c0.29-3.32,2.21-6.29,4.62-8.8c3.09-3.22,3.42-6.67,2.96-10.25c-1.1-8.68-2.56-17.32-3.75-25.99c-0.19-1.35,0.09-2.79,0.52-4.12
		c0.42-1.28,3.4-2.61,4.96-2.37c2.24,0.34,2.03,1.84,2.28,3.09c0.22,1.13,0.4,2.27,0.66,3.78c1.3-0.56,2.14-0.8,2.77-1.23
		c2.19-1.48,3.75-3.28,4.73-5.43c4.19-9.17,8.32-18.36,12.7-27.47c2.67-5.54,5.77-10.96,8.64-16.45
		C977.05,106.53,977.6,105.22,978.21,103.93z M444.48,328.39c0.98-1.36,1.8-2.47,2.59-3.6c0.93-1.32,2.24-1.85,4.2-1.41
		c2.05,0.46,2.01,1.64,1.82,2.88c-0.1,0.7-0.29,1.39-0.48,2.07c-0.64,2.35-1.32,4.71-1.96,7.06c-0.78,2.87,0.36,3.78,3.99,3.28
		c1.27-0.18,2.57-0.25,3.86-0.36c2.04-0.17,3.6-0.98,3.85-2.53c0.41-2.46,0.91-5.01,0.5-7.44c-0.51-3.03-0.7-5.97-0.01-8.97
		c0.25-1.09,0.44-2.18,0.59-3.28c0.21-1.53-0.68-2.52-2.64-2.85c-1.01-0.18-2.06-0.25-3.08-0.4c-1.02-0.16-2.08-0.26-3.03-0.56
		c-1.74-0.55-2.82-2.01-2.39-3.1c0.51-1.29,1.9-1.53,3.42-1.53c1.56,0,3.13,0.1,4.69,0.02c2.78-0.15,3.63-0.82,4.05-2.92
		c0.34-1.68,0.51-3.4,1.09-5.03c1.25-3.47,1.41-6.88,0.32-10.4c-0.44-1.42-0.7-3.1-0.12-4.43c1.17-2.68,0.12-5.16-0.3-7.71
		c-0.2-1.21-1.34-1.64-2.88-1.4c-6.52,1-12.11,3.04-15.37,7.86c-1.38,2.04-3,4-4.54,5.97c-4.5,5.75-9.36,11.35-11.48,18.01
		c-0.43,1.34-1.45,2.57-2.14,3.87c-2.85,5.39-5.66,10.79-8.51,16.17c-1.36,2.57-1.2,5.04,0.31,7.57c3.17,5.28,6.2,10.61,9.33,15.91
		c0.44,0.74,1.09,1.41,1.74,2.24c0.65-0.54,1.05-0.72,1.16-0.97c1.9-4.79,3.79-9.58,5.6-14.39c0.2-0.54,0.11-1.22-0.12-1.77
		c-1.27-2.94-2.61-5.87-3.95-8.79c-0.26-0.56-0.75-1.07-0.95-1.65c-0.44-1.3,0.65-2.23,2.35-1.93c0.98,0.17,1.95,0.58,2.77,1.04
		C440.58,325.94,442.27,327.04,444.48,328.39z M691.5,422.62c1.76-0.19,2.46-0.13,2.98-0.34c3.68-1.48,7.35-2.99,10.97-4.55
		c4.65-2,9.2-4.13,13.92-6.03c1.81-0.73,3.91-1.1,5.94-1.42c3.96-0.61,7.09,1.91,6.34,4.45c-0.31,1.05-0.34,2.21-0.14,3.29
		c0.33,1.85,2.34,2.9,4.15,1.97c3.21-1.66,6.33-3.52,9.03-5.64c1.92-1.5,0.75-3.58,0.28-5.46c-0.39-1.58-1.72-2.06-3.47-2.4
		c-2-0.39-3.12-1.6-3.31-3.04c-0.28-2.17-0.46-4.4-0.17-6.56c0.61-4.59,1.56-9.14,2.35-13.71c0.97-5.57-0.07-10.99-2.1-16.34
		c-0.61-1.6-1.75-2.57-3.87-3.02c-3.64-0.77-7.23-1.68-10.86-2.48c-0.63-0.14-1.35-0.02-2.71-0.02c1.29,1.08,2.09,1.85,3.01,2.5
		c2.95,2.12,5.96,4.2,8.94,6.29c0.67,0.47,1.43,0.9,1.98,1.45c1.34,1.35,0.65,2.62-1.53,2.74c-1.15,0.06-2.33-0.22-3.49-0.21
		c-0.94,0.01-1.87,0.22-2.93,0.36c0.35,1.51,0.61,2.65,0.94,4.09c-1.49,0.21-2.71,0.5-3.95,0.53c-4.12,0.1-12.3-2.96-14.49-5.69
		c-4.59-5.72-11.69-8.7-19.5-10.93c-1.5-0.43-3.2-0.88-4.54,0.07c2.83,4.6,5.57,9.05,8.6,13.97c0.49-1.19,0.77-1.91,1.08-2.62
		c0.87-1.98,2.1-2.53,4.73-2.11c3.01,0.48,4.19,1.62,4.08,4.34c-0.31,7.72-0.68,15.43-1.12,23.14c-0.11,1.99-0.17,4.05-0.87,5.95
		c-1.85,5.02-4.23,9.9-8.09,14.27C692.99,420.25,692.51,421.15,691.5,422.62z M718.1,273.17c0.4-0.01,0.8-0.02,1.2-0.03
		c0.46-1.1,0.93-2.19,1.38-3.29c0.51-1.24,1.37-2.16,3.23-2.24c1.95-0.09,4.09,0.86,4.67,2.23c0.31,0.74,0.34,1.58,0.35,2.37
		c0.07,4.61-0.05,9.23,0.2,13.83c0.22,4.1,0.43,8.2,2.14,12.18c5.02,11.73,8.82,23.7,12.13,35.78c0.8,2.93,2.21,5.76,3.47,8.61
		c0.52,1.18,1.15,2.44,3.52,2.84c0.22-1.18,0.51-2.23,0.59-3.29c0.25-3.5,0.36-7.02,0.68-10.52c0.07-0.82,0.52-2.14,1.19-2.32
		c2.91-0.75,2.59-2.46,2.64-4.16c0.05-1.5,0.11-3.01,0.36-4.5c1.6-9.51-0.1-18.82-3.06-28.01c-1.83-5.67-3.28-11.34-3.93-17.16
		c-0.65-5.88-4.21-11.13-6.3-16.7c-0.04-0.1-0.08-0.24-0.17-0.26c-0.77-0.25-1.58-0.7-2.31-0.64c-0.44,0.03-1.09,0.86-1.1,1.33
		c-0.02,1.09,0.3,2.19,0.49,3.28c0.27,1.59,0.7,3.18,0.77,4.77c0.07,1.6-1.69,2.8-3.78,2.81c-2.02,0.01-2.68-0.96-2.8-2.32
		c-0.04-0.4-0.12-0.8-0.18-1.2c-0.64-4.59-1.24-9.18-1.94-13.76c-0.35-2.27-0.93-4.51-3.42-6.51c-1.17,0.76-2.37,1.34-3.24,2.14
		c-3.52,3.23-6.88,6.55-10.4,9.77c-1.46,1.33-1.43,2.7-0.85,4.22c1.1,2.89,2.12,5.79,3.25,8.67
		C717.13,271.83,717.67,272.49,718.1,273.17z M788.1,628.34c1.37-2,0.77-3.61,0.43-5.26c-0.34-1.66-1.05-3.53-0.42-5
		c2.07-4.83,1.3-9.75,1.37-14.63c0.05-3.04-0.56-6.02-4.46-7.88c-1.72-0.81-1.87-2.12-0.91-3.44c1.15-1.57,2.28-3.17,3.64-4.64
		c6.38-6.88,7.69-14.48,5.97-22.66c-1.71-8.14-4.13-16.12-7.07-24.05c-3.94-10.61-7.3-21.34-10.93-32.02
		c-0.34-1-0.79-1.99-1.19-2.98c-1,0.7-1.38,1.31-1.48,1.95c-1.06,6.99-1.7,13.99-0.94,21.03c0.18,1.69,0.28,3.42,0.07,5.1
		c-0.86,6.62-0.7,13.21,0.47,19.81c0.58,3.27,0.62,6.6,0.87,9.9c0.28,3.7,0.39,7.4,0.79,11.09c1.9,17.57,6.91,34.69,12.75,51.68
		C787.23,626.9,787.6,627.41,788.1,628.34z M474,260.92c3.14,0.49,4.91,1.63,5.55,3.65c0.47,1.48,1.49,2.41,3.23,3.15
		c2.91,1.24,3.23,1.87,2.42,4.42c-1.14,3.6-2.68,7.13-3.61,10.76c-0.54,2.11-0.38,4.35-0.29,6.52c0.08,1.99,0.67,3.96,0.71,5.95
		c0.06,2.9-0.24,5.81-0.25,8.71c-0.01,1.96,0.43,2.35,2.93,2.33c2.72-0.02,5.46-0.19,8.16-0.49c2.95-0.33,3.4-0.72,3.81-3.1
		c0.49-2.88,0.85-5.77,1.16-8.67c0.42-3.99,0.61-8.01,2.37-11.84c0.99-2.15,0.87-4.31-0.01-6.49c-1.3-3.25-2.54-6.53-3.7-9.81
		c-0.34-0.98-0.33-2.03-0.49-3.19c1.82,0,3.07,0,4.85,0c-0.5-5.43-2.04-10.59-2.98-15.8c-0.84-4.67-5.55-12.27-8.42-14.35
		c-1.19,2.3-2.37,4.5-3.48,6.73c-1.54,3.09-2.99,6.22-6.51,8.41c-0.38,0.24-0.69,0.62-0.83,0.98c-1.21,3.27-3.87,5.86-6.57,8.45
		c-0.79,0.75-1.64,1.76-1.64,2.65c-0.03,3.37,1.37,6.53,2.62,9.69c0.32-0.03,0.64-0.06,0.96-0.09C474,266.73,474,263.95,474,260.92z
		 M766.91,403.68c0.32,0.03,0.64,0.06,0.96,0.09c2.15-2.49,4.17-5.05,6.51-7.44c1.21-1.24,2.78-2.46,4.54-3.13
		c1.85-0.71,2.75-1.6,3.32-3.04c2.56-6.44,3.32-12.95,1.86-19.61c-1.91-8.7-3.77-17.4-5.54-26.12c-0.52-2.57-0.66-5.2-3.91-6.83
		c-0.4-0.2-0.67-0.63-0.84-1c-1.56-3.45-5.2-4.78-9.21-5.54c-2.55,1.15-4.93,2.23-7.33,3.32c0.28,0.83,0.43,1.42,0.67,1.98
		c0.41,0.95,0.94,1.87,1.32,2.83c0.49,1.23,1.45,1.96,3.05,2.49c3.57,1.16,3.73,1.62,3.06,4.63c-0.72,3.26-1.44,6.52-1.99,9.79
		c-0.64,3.77,0.49,7.14,4.1,9.93c1.17,0.91,2.09,2.06,2.89,3.19c0.91,1.3,1.74,2.68,1.09,4.44c-5.75,0.97-6.59-3.79-10.31-5.34
		c-0.91,2.23-0.92,4.29-0.49,6.4c1.5,7.32,2.93,14.66,4.46,21.98C765.59,399.04,766.3,401.35,766.91,403.68z M670,566.09
		c-3.96-1.03-6.3-3.78-9.05-6.17c-1.27-1.1-1.75-2.26-0.95-3.85c2.8-5.6,5.46-11.25,7.98-16.93c0.79-1.78,1.01-3.73,1.4-5.61
		c0.59-2.89-0.15-5.52-2.2-8.04c-3.51-4.34-6.78-8.8-10.17-13.2c-0.31-0.4-0.77-0.73-1.48-1.39c-0.57,1.1-1.09,1.88-1.39,2.71
		c-3.24,8.67-6.45,17.36-9.66,26.04c-0.91,2.46-1.03,4.91-0.21,7.43c3.21,9.92,6.34,19.87,9.53,29.79c0.2,0.63,0.67,1.22,1.26,2.27
		c2.61-4.7,2.88-8.73-1.11-12.56c-0.91-0.87-2.26-1.64-1.87-3.43c3.61,0.73,6.44,1.89,8.33,4.22c2.82,3.48,3.83,7.14,2.39,11.22
		c-0.99,2.8-1.51,5.7-2.15,8.56c-0.12,0.55,0.22,1.17,0.43,2.16c0.59-0.7,0.96-0.94,0.99-1.2c0.41-4.02,3.03-7.4,5.16-10.95
		c1.06-1.76,1.3-3.83,1.79-5.77C669.42,569.78,669.63,568.15,670,566.09z M593.42,377.26c-3.06,2.38-5.02,4.72-6.39,7.33
		c-0.47,0.9-0.5,1.95-0.62,2.94c-0.34,2.78-0.51,5.58-0.97,8.35c-0.46,2.78-1.15,5.54-1.83,8.3c-0.49,1.97,0.12,3.42,2.38,4.66
		c3.26,1.79,3.24,2.47,1.87,5.35c-1.29,2.71-2.82,5.46-3.28,8.29c-1.24,7.55-1.97,15.15-2.87,22.73c-0.06,0.52,0.22,1.06,0.48,2.18
		c1.32-1.12,2.17-1.82,2.99-2.54c2.59-2.25,5.12-4.54,7.79-6.74c6.23-5.12,12.53-10.19,18.79-15.29c4.74-3.87,4.73-3.87,4.96-8.57
		c0.62,0.05,1.23,0.08,1.83,0.14c3.01,0.32,4.21-0.64,3.26-2.81c-0.45-1.02-1.2-2.02-2.1-2.85c-3.65-3.4-7.38-6.75-11.14-10.08
		c-0.61-0.54-1.51-0.89-2.65-1.54c-0.3,0.98-0.58,1.53-0.61,2.09c-0.36,7.01-0.69,14.01-1.03,21.02c-0.08,1.6-0.05,3.21-0.39,4.78
		c-0.26,1.21-1.15,2.33-3.06,2.33c-1.82,0-2.32-1.13-2.62-2.24c-1.27-4.71-2.69-9.4-3.7-14.14c-1.8-8.42,0.49-16.8,0.94-25.18
		C595.61,382.75,594.71,380.29,593.42,377.26z M535.91,394.63c2.57,0.63,3.42-0.59,4.54-1.31c4.48-2.9,8.95-5.81,13.39-8.75
		c0.88-0.58,1.94-1.16,2.4-1.92c2.79-4.64,5.43-9.33,8.1-14.01c0.2-0.36,0.17-0.79,0.29-1.17c0.67-2.33,1.21-4.69,2.07-6.98
		c0.94-2.5,2.26-4.91,3.27-7.4c2.46-6.1,3.95-12.25,1.74-18.65c-0.39-1.14,0.07-2.53,0.47-3.74c0.94-2.91,2.13-5.78,3.09-8.68
		c0.17-0.53-0.27-1.17-0.5-2.03c-0.85,0.48-1.44,0.64-1.63,0.95c-3.24,5.13-9.46,8.79-11.97,14.28c-0.25,0.55-0.82,1.02-1.21,1.54
		c-2.55,3.38-5.37,6.66-7.56,10.17c-1.73,2.77-2.95,5.78-3.91,8.78c-1.05,3.32-0.81,3.44,3.28,4.97c1.71,0.64,2.33,1.51,1.7,2.89
		c-0.26,0.57-0.55,1.13-0.79,1.7c-3.95,9.06-9.72,17.51-14.92,26.15C537.13,392.39,536.6,393.4,535.91,394.63z M734.89,358.39
		c-1.36-2.9-2.31-5.61-3.84-8.11c-4.24-6.91-7.43-14.09-9.75-21.51c-0.51-1.64-0.67-3.35-1.17-5c-0.58-1.93-0.99-3.98-2.14-5.71
		c-1.7-2.58-3.89-4.98-6.05-7.35c-0.84-0.92-2.16-1.57-3.74-2.68c-1.08,1.4-2.04,2.32-2.55,3.38c-1.62,3.38-3.28,6.77-4.52,10.24
		c-1.21,3.37-2.08,6.82-2.8,10.27c-0.77,3.66,1.01,6.63,4.71,9.03c3.49,2.25,6.95,4.55,10.19,7.01c3.62,2.75,7.69,4.7,12.71,5.55
		c1.67,0.28,3.2,1.04,4.8,1.58c0.13,0.29,0.25,0.58,0.38,0.86c-1.06,0.37-2.12,0.74-3.52,1.24
		C730.09,358.57,731.88,359.11,734.89,358.39z M358.62,291.54c-0.33,0.02-0.65,0.05-0.98,0.07c-1.72,6.51-3.43,13.02-5.13,19.49
		c5.53,1.51,6.68,3.39,4.87,7.43c-0.42,0.95-0.96,1.86-1.47,2.79c-1.21,2.22-2.55,4.4-3.61,6.66c-0.75,1.59-1.39,3.26-1.61,4.93
		c-0.39,3.1,0.82,3.77,4.89,3.65c2.15-0.06,4.44,0.1,6.45,0.64c1.93,0.52,3.38,0.38,5.16-0.26c4.2-1.52,6.91-4.18,9.65-6.87
		c7.01-6.89,6.87-6.81,0.89-14.1c-5.9-7.2-11.45-14.58-17.15-21.89C359.92,293.23,359.27,292.38,358.62,291.54z M702.5,271.2
		c-0.31-0.09-0.61-0.18-0.92-0.27c-0.84,0.71-1.7,1.41-2.52,2.13c-1.1,0.98-2,2.15-3.29,2.94c-11.94,7.27-20.67,16.89-31.17,25.21
		c-2.14,1.69-2.12,2.25-0.19,4.15c3.77,3.7,7.64,7.35,11.56,10.96c0.88,0.81,2.12,1.39,3.49,2.25c1.24-1.73,2.3-3.2,3.36-4.67
		c4.17-5.77,8.43-11.5,12.46-17.33c1.7-2.46,3.42-5.03,4.19-7.71c1.48-5.17,2.32-10.45,3.35-15.7
		C702.92,272.53,702.61,271.85,702.5,271.2z M515.45,394.07c0.32,0,0.63,0.01,0.95,0.01c0.44-1.01,0.85-2.04,1.34-3.04
		c1.54-3.19,2.96-6.43,4.74-9.54c1.13-1.97,3.33-3.62,2.02-6.09c-0.24-0.45,0.31-1.15,0.5-1.73c1.55-4.66,3.09-9.33,4.67-13.99
		c0.29-0.86,0.49-1.86,1.18-2.51c1.76-1.67,1.23-3.33,0.55-5.11c-1.25-3.26-2.35-6.55-3.55-9.82c-0.46-1.25-0.89-2.52-1.52-3.73
		c-1.08-2.05-1.99-2.35-4.46-1.35c-2.88,1.16-5.64,2.51-8.46,3.75c-1.88,0.83-2.74,2.03-2.66,3.71c0.24,5.21,0.35,10.43,0.63,15.64
		c0.19,3.49,2.23,6.34,5.66,8.6c0.94,0.62,1.86,1.27,2.82,1.93c-0.39,0.24-0.5,0.36-0.58,0.35c-1.13-0.17-2.25-0.35-3.37-0.55
		c-3.09-0.56-3.84-0.12-3.71,2.28c0.26,4.71,0.51,9.41,0.87,14.12C513.25,389.45,513.84,391.88,515.45,394.07z M510.85,658.01
		c0.27,0.01,0.54,0.02,0.8,0.04c0.16-1.08,0.39-2.15,0.48-3.24c0.38-4.61,0.68-9.22,1.09-13.82c0.23-2.61,0.4-5.15-0.86-7.7
		c-0.63-1.26-0.53-2.76-0.63-4.16c-0.23-3.3-0.45-6.61-0.52-9.92c-0.05-2.29-0.28-4.66,0.37-6.86c0.61-2.08,0.58-3.9-0.44-5.76
		c-6.27-1.24-10.47-5.16-9.48-8.9c0.76,0.15,1.52,0.29,2.18,0.42c-1.6-1.87-3.16-3.62-4.6-5.42c-1.23-1.54-2.29-3.15-3.49-4.7
		c-0.42-0.54-1.06-0.98-2.07-1.89c-0.25,1.63-0.65,2.72-0.54,3.78c0.65,6.3,1.36,12.6,2.16,18.89c0.29,2.28,0.39,4.69,1.46,6.77
		c1.87,3.62,1.89,7.42,2.74,11.14c0.59,2.56,0.46,5.21,1.12,7.75c2.01,7.8,5.53,15.25,9.44,22.6
		C510.24,657.38,510.58,657.68,510.85,658.01z M447.41,418.8c0.5-0.34,0.93-0.5,1.05-0.74c2.63-5.23,5.26-10.45,5.92-16.13
		c0.21-1.75,0.55-3.7,1.72-5.12c1.73-2.1,2.43-4.11,1.8-6.52c-0.28-1.07-0.14-2.2-0.25-3.3c-0.45-4.49-0.59-9.03-1.46-13.47
		c-1.09-5.54-2.71-11.03-4.23-16.51c-0.85-3.06-3.26-6.7-5.38-8.39c-0.18,1.27-0.29,2.35-0.51,3.42c-1,4.85-1.75,9.74-3.13,14.52
		c-1.33,4.6-0.81,8.91,1.39,13.24c0.52,1.03,0.84,2.5,0.28,3.41c-1.63,2.65-1.28,5.21-0.56,7.92c1.04,3.94,1.15,7.86,0.39,11.93
		c-0.75,4.01-0.12,8.18-0.02,12.27C444.45,416.84,445.42,417.98,447.41,418.8z M410.28,357.49c-0.68,1.02-1.24,1.58-1.45,2.21
		c-1.05,3.2-2.55,6.39-2.9,9.65c-1.29,11.99-1.65,24.02-1.36,36.06c0.08,3.61,0,7.22,0.02,10.83c0,0.83,0.13,1.66,0.25,3.18
		c0.91-0.96,1.35-1.29,1.59-1.69c4.58-7.53,9.86-14.82,12.91-22.86c0.29-0.76,0.74-1.51,1.29-2.19c1.25-1.54,1.38-3.17,1.13-4.92
		c-0.61-4.18-1.04-8.38-1.67-12.56c-0.18-1.18-0.63-2.36-1.21-3.46c-1.23-2.32-2.61-4.6-3.98-6.87
		C413.47,362.54,411.98,360.22,410.28,357.49z M892.12,302.23c-1.02-2.31,0.09-3.72,2-4.98c1.37-0.91,2.87-1.77,3.95-2.86
		c6.72-6.79,8.5-14.95,10.57-23.02c0.34-1.32-0.48-2.23-2.27-2.23c-3.51,0-7.04-0.02-10.53,0.27c-3.31,0.27-4.11,1.02-4.64,3.67
		c-0.38,1.88-0.6,3.79-0.77,5.69c-0.67,7.58-2.9,15.09-1.42,22.77c0.36,1.85,0.08,3.82-0.27,5.7c-0.87,4.56-1.98,9.1-2.97,13.64
		c-0.2,0.93-0.35,1.86-0.53,2.86c0.77,0,1.11,0.08,1.26-0.01c5.85-3.67,11.77-7.27,17.45-11.1c1.08-0.73,1.55-2.31,1.6-3.52
		c0.03-0.79-1.1-1.69-1.97-2.33c-0.18-0.13-1.68,0.63-2.36,1.14c-2.76,2.08-6.43,1.93-8.71-0.38c-0.91-0.93-1.03-1.81-0.05-2.73
		c0.91-0.85,1.86-1.68,2.73-2.55c0.17-0.17,0.06-0.49,0.09-0.92C894.22,301.64,893.4,301.87,892.12,302.23z M553.06,419.19
		c-1.36,2.62-2.57,5.11-3.97,7.54c-0.78,1.35-2.11,1.41-3.29,0.24c-1.44-1.43-1.9-3.03-1.19-4.82c1.14-2.88,2.28-5.75,3.3-8.65
		c0.38-1.08,0.43-2.23,0.73-3.88c-2.34,0.37-3.96,0.55-5.52,0.89c-4.38,0.95-4.42,0.97-4.56,4.52c-0.27,6.71-0.27,13.44-0.78,20.14
		c-0.36,4.73-0.17,9.4,0.38,14.1c0.39,3.29,0.18,6.62,0.61,9.9c0.45,3.37,1.35,6.71,2.11,10.06c0.06,0.25,0.56,0.44,0.83,0.63
		c0.65-1.89,0.76-3.85,1.96-5.26c1.56-1.84,1.8-3.67,1.78-5.7c-0.04-4.19-0.01-8.38-0.01-12.93c1.93,0.36,3.5,0.65,5.06,0.94
		c-0.53-0.45-1.07-0.9-1.6-1.36c1.63-0.81,3.26-1.61,4.89-2.42c0.35,0.18,0.71,0.35,1.06,0.53
		C554.26,435.5,553.66,427.36,553.06,419.19z M233.73,343.8c-0.63,1.02-1.18,1.73-1.53,2.51c-1.04,2.27-1.83,4.62-3.06,6.82
		c-0.69,1.23-1.83,2.44-3.17,3.28c-2.46,1.53-2.66,1.43-1.72,3.89c1.71,4.47,2.26,9.03,2.14,13.68c-0.09,3.5,0.12,7.01,0.21,10.52
		c0.15,5.37,3.19,9.85,7.43,13.92c0.4,0.38,1.17,0.54,1.78,0.8c0.27-0.39,0.48-0.55,0.5-0.73c1.02-7.45,3.27-14.83,1.9-22.41
		c-0.19-1.08-0.25-2.23,0.01-3.29c1.52-6.38,0.79-12.8,0.62-19.21c-0.02-0.95-0.67-1.88-1.03-2.83
		C237.82,350.74,234.01,344.27,233.73,343.8z M672.29,518.36c1.66-2.85,1.75-5.08,0.21-7c-1.55-1.94-2.46-3.46,0.4-5.12
		c0.62-0.36,0.85-1.22,1.06-1.89c0.81-2.63,1.93-5.25,2.18-7.92c0.28-2.95-0.17-5.96-0.49-8.93c-0.19-1.73-1.56-2.91-3.71-3.54
		c-3.4-1-6.75-2.11-10.19-3.02c-2.96-0.79-3.88-0.45-4.55,1.79c-1.38,4.66-3.57,9.28-1.57,14.17c0.15,0.37,0.18,0.82,0.04,1.19
		c-0.7,1.88,0.47,3.24,1.82,4.67c4.05,4.29,7.98,8.64,11.98,12.96C670.18,516.49,671.02,517.18,672.29,518.36z M492.77,373.52
		c-0.39-0.04-0.78-0.09-1.17-0.13c-0.93,1.05-1.9,2.08-2.8,3.15c-2.58,3.09-2.57,3.09-7.05,2.46c-0.2-0.03-0.46,0.15-0.98,0.33
		c0,0.96-0.11,2.03,0.02,3.08c0.64,4.97,1.46,9.93,1.99,14.9c0.47,4.39,0.61,8.79,0.95,13.19c0.07,0.92,0.37,1.83,0.6,2.95
		c1.55-0.93,2.5-1.87,3.71-2.15c5.11-1.19,7.45-4.13,8.76-7.77c1.55-4.29,1.83-8.7,1.43-13.1c-0.13-1.41-0.99-2.95-2.12-4.08
		c-1.61-1.62-2.26-3.32-2.32-5.27c-0.06-1.6-0.12-3.2-0.31-4.8C493.37,375.36,493.01,374.44,492.77,373.52z M942.93,278.27
		c-3.08-1.44-5.74-2.9-8.63-3.98c-3.01-1.12-4.42-0.57-5.04,1.96c-1.62,6.69-3.04,13.41-4.46,20.13c-0.15,0.69,0.19,1.45,0.37,2.62
		c1.3-0.83,2.1-1.31,2.84-1.83c3.74-2.63,7.44-5.3,11.21-7.91c3.96-2.75,7.99-5.44,11.95-8.19c0.91-0.63,1.65-1.4,2.83-2.41
		C949.94,277.64,946.67,275.7,942.93,278.27z M448.39,443.27c-0.36,0.49-0.79,0.83-0.82,1.17c-0.38,5.59-0.79,11.18-1,16.77
		c-0.06,1.67,1.03,2.21,3.05,1.59c3.37-1.03,6.61-2.32,9.95-3.42c2.07-0.68,2.97-1.76,2.83-3.5c-0.26-3.09-0.35-6.19-0.6-9.29
		c-0.05-0.67-0.2-1.59-0.77-1.93c-2.86-1.7-4.32-4.1-5.78-6.92C453.17,440.16,454.52,444.67,448.39,443.27z M621.65,447.26
		c0.97,0.53,1.35,0.85,1.81,0.98c7.81,2.19,15.64,4.34,23.45,6.53c1.36,0.38,2.52,0.27,3.62-0.46c3.02-2,5.44-4.32,6.51-7.32
		c0.25-0.7,0.13-1.49,0.21-2.75c-3.79,0.53-7.06,0.99-10.33,1.45c-1.25,0.18-2.69,0.74-3.73,0.46c-3.23-0.88-6.27-0.85-9.51-0.05
		c-2.15,0.52-3.07-0.07-3.77-1.73c-0.33-0.78-0.58-1.58-1.08-2.93C626.16,443.6,624.06,445.31,621.65,447.26z M493.82,314.22
		c-4,0-7.33-0.06-10.65,0.03c-1.35,0.03-2.1,0.85-2.07,1.86c0.13,4.5,0.3,9,0.53,13.49c0.06,1.19,1.05,1.95,2.57,1.69
		c2.39-0.41,4.8-0.91,7.03-1.67c0.83-0.28,1.6-1.38,1.68-2.15C493.33,323.2,493.53,318.91,493.82,314.22z M947.87,222.92
		c-0.75,0.5-1.07,0.6-1.11,0.75c-2.5,8.38-4.99,16.76-7.44,25.14c-0.45,1.56,0.36,2.71,2.23,3.45c2.54,1.01,5.02,2.11,7.56,3.11
		c0.7,0.27,1.53,0.35,2.65,0.59c-2.41-5.53-3.63-10.85-3.85-16.26C947.7,234.24,947.87,228.77,947.87,222.92z M856.71,241.28
		c4.76,3.25,8.68,6.31,13.72,8.28c1.78,0.7,3.71,1.39,6.17,0.57c-2.59-3.51-0.66-6.21,2.25-8.79c0.88-0.78,1.4-1.79,2.09-2.69
		c-0.16-0.19-0.33-0.38-0.49-0.57C872.87,239.1,865.29,240.12,856.71,241.28z M482.62,349.69c-0.25,0.87-0.69,1.78-0.75,2.72
		c-0.45,6.42-1.47,12.83-0.32,19.33c0.87-0.45,1.43-0.94,1.78-1.51c1.08-1.71,1.86-3.56,3.15-5.16c3.53-4.41,2.64-8.79,0.33-13.25
		C486.12,350.48,485.09,349.62,482.62,349.69z M936.69,256.34c-0.55,1.16-1.1,2.16-1.5,3.21c-1,2.61-0.44,3.29,3.01,3.45
		c3.75,0.18,7.5,0.26,11.25,0.34c0.7,0.01,1.41-0.2,2.23-0.33C949.23,260.47,941.5,257.01,936.69,256.34z M908.78,248.69
		c0-1.3,0.48-2.62-0.09-3.56c-1.75-2.87-1.26-5.84-1.34-8.81c-0.02-0.59-0.25-1.17-0.38-1.76c-1.96,2.77-3.23,5.57-4.53,8.36
		C900.11,247.95,900.86,248.73,908.78,248.69z M461.32,359.02c0.38-0.41,0.72-0.62,0.78-0.87c0.74-3.05,1.52-6.09,2.12-9.16
		c0.49-2.51-1.3-3.52-4.4-2.62c-2.01,0.58-2.85,1.44-2.38,3.3c0.69,2.74,1.74,5.43,2.71,8.13
		C460.29,358.22,460.84,358.54,461.32,359.02z M774.7,436.03c1.12-2.38,2.01-4.12,2.75-5.89c0.54-1.29,0.05-2.41-1.54-3.08
		c-1.31-0.55-2.8-0.79-4.01,0.08c-1.27,0.92-2.19,2.12-1.28,3.49C771.72,432.3,773.05,433.87,774.7,436.03z M370.98,601.73
		c2.04-2.08,2.59-3.94,3.36-5.7c0.12-0.27,0.12-0.6,0.03-0.87c-0.41-1.18-5.09-3.75-7.71-3.99c0.87,1.72,1.74,3.23,2.38,4.79
		C369.72,597.62,370.19,599.35,370.98,601.73z M546.42,336.47c1.64-3.13,2.37-6.03,2.79-9.19c-2.74,0.23-4.95,0.5-6.06,2.23
		C542.18,331.04,543.81,334.78,546.42,336.47z M603.21,327.96c-2.88,5.88-5.29,21.51-3.68,24.11
		C600.76,344.03,601.99,336,603.21,327.96z M906.34,252.8c-0.14,0.21-0.29,0.43-0.43,0.64c2.04,1.29,4.03,2.65,6.15,3.86
		c1.36,0.78,2.4,0.24,3.08-0.82c0.86-1.33,0.6-2.28-1.04-2.59C911.55,253.41,908.93,253.16,906.34,252.8z M933.09,366.78
		c-0.37-0.04-0.73-0.08-1.1-0.12c-0.81,2.45-1.78,4.88-2.38,7.36c-0.35,1.44,0.98,2.05,3.04,2.16
		C934.17,372.99,932.93,369.87,933.09,366.78z M594.75,367.1c-1.77,2.81-0.98,5.32,2.09,7.34
		C598.6,371.42,595.97,369.36,594.75,367.1z M697.46,355.85c-0.11,0.27-0.23,0.53-0.34,0.8c3.51,1.05,7.01,2.11,10.52,3.16
		C704.9,357.37,701.41,356.22,697.46,355.85z M618.16,207.58c0.45,2.13-0.3,4.51,2.33,6.15
		C620.52,211.51,620.05,209.4,618.16,207.58z M438.85,619.69c-0.37-0.03-0.74-0.06-1.11-0.09c-0.58,0.89-1.92,1.76,0.61,3.12
		C438.55,621.48,438.7,620.59,438.85,619.69z M484.19,347.55c0.25-2.05,0.25-2.05-1.86-2.22
		C483.04,346.18,483.62,346.86,484.19,347.55z M722.84,236.13c0.29-0.06,0.58-0.13,0.87-0.19c-0.34-0.86-0.67-1.73-1.01-2.59
		c-0.27,0.06-0.55,0.12-0.82,0.18C722.2,234.4,722.52,235.26,722.84,236.13z M582.98,461.79c-0.35-0.01-0.7-0.03-1.05-0.04
		c-0.09,0.55-0.18,1.1-0.27,1.65c0.44-0.03,1.24,0,1.26-0.09C583.05,462.82,582.99,462.3,582.98,461.79z M460.82,267.94
		c-0.29,0.13-0.59,0.27-0.88,0.4c0.46,0.59,0.92,1.17,1.39,1.76c0.28-0.13,0.55-0.25,0.83-0.38
		C461.71,269.13,461.26,268.53,460.82,267.94z M487.38,429.58c0.22,0.06,0.44,0.12,0.66,0.18c0.23-0.7,0.46-1.4,0.69-2.09
		c-0.19-0.04-0.39-0.08-0.58-0.12C487.9,428.22,487.64,428.9,487.38,429.58z M422.28,415.81c-0.33-0.06-0.65-0.13-0.98-0.19
		c-0.16,0.56-0.32,1.13-0.47,1.69c0.29,0.05,0.58,0.11,0.87,0.16C421.89,416.92,422.08,416.36,422.28,415.81z"/>
	<path d="M199.5,793.19c1.16-1.96,1.16-1.96,4.11-1.08c-1.41,0.63-2.5,1.12-3.59,1.61C199.84,793.54,199.67,793.37,199.5,793.19z"/>
</g>
<g>
	<path class="st0" d="M210.52,881.96c-2.53,5.43-5.29,10.2-6.94,15.07c-4.68,13.8-21.23,24.62-34.17,36.33
		c-13.88,12.56-29.28,24.71-42.15,37.53c-18.16,18.1-41.07,34.59-62.63,51.56c-7.49,5.89-12.77,12.52-19.24,18.76
		c-2.62,2.53-5.47,5.02-8.7,7.35c-3.34,2.42-7.82,4.4-13.78,2.34c-6.64-2.3-2.2-5.41,0.28-7.42c19.63-15.89,40.22-31.47,59.63-47.43
		c9.5-7.81,17.07-16.23,25.6-24.35c14.73-14.03,30.08-27.9,44.07-42.12c8.75-8.88,15.69-18.24,23.05-27.47
		c2.99-3.75,3.16-8.01-1.71-11.16c-2.98-1.92-10.07-3.88-14.04-3.35c-10.22,1.37-19.74,4.12-29.51,6.33
		c-3.21,0.73-6.43,2.21-9.51,2.11c-4.49-0.14-11.4-0.79-12.73-2.28c-2.44-2.75-3.95-6.85-1.63-9.36
		c8.33-8.98,16.68-17.94,32.89-24.51c7.75-3.14,11.97-8.68,17.26-13.29c8.26-7.2,16.82-14.35,23.89-21.86
		c7.64-8.12,13.91-16.59,20.39-24.98c4.26-5.52,8.16-11.13,11.65-16.8c6.85-11.12,5.47-22.18-3.84-32.71
		c-5.93-6.7-13.45-13.06-20.91-19.37c-2.39-2.02-7.15-3.26-10.26-5.1c-2.45-1.46-4.37-3.22-5.94-4.98
		c-5.05-5.65-10.46-11.24-14.48-17.08c-2.52-3.66-4.9-7.91-3.67-11.57c2.31-6.85-1.5-12.59-7.97-18.09
		c-4.11-3.5-6.46-6.91-4.18-10.94c0.28-0.49,0.54-1.19,0.07-1.54c-5.45-4.09-10.67-8.28-16.71-12.14
		c-4.94-3.15-11.52-5.65-16.28-8.86c-7.19-4.85-13.32-10.11-20.16-15.11c-1.63-1.19-4.22-2.07-6.55-2.97
		c-7.33-2.81-13.38-6.13-13.93-11.04c-0.16-1.41,2.16-2.88,3.34-4.33c2.51,0.73,5.02,1.46,7.51,2.2c0.23,0.07,0.45,0.23,0.52,0.36
		c4.33,8.63,20.08,12.21,30.66,18.04c18.77,10.34,38.71,20.14,57.24,30.59c15.05,8.49,28.27,17.83,43.25,26.35
		c8.53,4.86,19.56,8.55,28.38,13.3c16.52,8.89,32.26,18.17,48.31,27.29c21.12,12,38.71,25.84,67.63,33.81
		c4.19,1.16,9.08,2.63,8.79,6.13c-0.22,2.74-3.73,2.49-6.01,1.93c-4.96-1.21-10.04-2.63-13.96-4.56
		c-10.16-4.99-19.61-10.36-29.53-15.49c-17.74-9.17-36.04-18.06-53.32-27.45c-17.48-9.5-33.65-19.63-51.12-29.14
		c-9.06-4.93-19.63-9.14-29.67-13.58c-0.87-0.38-3.27-0.29-4.38,0.06c-0.88,0.28-1.37,1.33-1.15,1.97c0.32,0.94,1.12,1.92,2.25,2.68
		c9.45,6.34,10.54,13.69,8.03,21.02c-2.91,8.49,4.76,15.46,10.06,22.77c3.41,4.71,8.59,9.09,13.2,13.56
		c1.06,1.03,3.14,1.76,4.55,2.71c3.54,2.37,7.13,4.72,10.37,7.19c2.52,1.92,4.16,4.17,6.88,6.01c8.41,5.69,8.51,13.37,2.19,19.74
		c-3.36,3.39-5.12,7.74-4.47,11.52c1.71,9.93-5.12,18.64-12.07,27.44c-0.77,0.98-1.5,2-1.74,3.04
		c-1.63,6.95-10.44,11.98-18.29,17.07c-15.66,10.13-29.83,20.62-38.09,32.94c-0.73,1.08-0.46,2.34-0.66,3.52
		c2.02-0.24,4.19-0.33,6.05-0.76c10.45-2.45,20.59-3.43,29.88,1.24c0.73,0.37,1.67,0.67,2.2,1.1c2.78,2.26,4.84,4.57,11.19,5.27
		C207.97,877.29,209.08,880.39,210.52,881.96z"/>
	<path class="st0" d="M487.38,768.15c7.53,2.72,14.78,5.37,22.1,7.97c10.75,3.83,18.89,15.3,16.31,21.79
		c-0.95,2.39,0.35,5.05,1.15,7.55c0.09,0.28,4.41,0.74,5.53,0.3c7.36-2.92,12.5-6.53,15.37-11.29c2.02-3.37,7.17-6.23,10.71-9.38
		c1.4-1.25,3.61-2.85,3.07-3.99c-3.52-7.44-7.68-14.8-11.66-22.18c-1.57-2.91-4.08-5.76-4.63-8.71
		c-1.43-7.71-12.38-11.95-21.59-16.97c-3.86-2.1-6.47-4.85-9.16-7.44c-0.31-0.3,2.33-1.98,3.8-2.06c2.28-0.12,4.95,0.38,7.07,0.97
		c11.67,3.28,24.15,6.12,28.35,13.57c0.56,1,2.62,1.8,4.07,2.65c5.25,3.07,7.8,6.49,8.13,10.7c0.49,6.38,2.21,12.73,3.84,19.07
		c0.36,1.39,2.48,2.69,3.97,3.98c7.86,6.77,5.16,13-1.88,19.64c-9.64,9.1-24.56,15.04-40.91,20.42c-0.7,0.23-0.99,1.45-0.46,1.88
		c3.07,2.53,7.07,4.81,9.58,7.46c5.12,5.41,13.13,9.37,22.39,12.8c1.09,0.4,2.76,0.51,4.19,0.55c9.14,0.28,18.28,0.6,27.42,0.66
		c1.54,0.01,4.22-1.1,4.48-1.86c1.58-4.57,2.9-9.18,3.71-13.81c0.57-3.22,0.74-6.51,0.01-9.71c-0.46-2.02-4.09-3.9-4.19-5.87
		c-0.13-2.67,1.25-5.45,2.9-8.02c2.33-3.64,4.91-7.3,8.51-10.63c3.18-2.95,7.86-5.48,11.96-8.16c3.45-2.25,7.34-4.33,10.49-6.68
		c7.62-5.68,14.95-11.47,22.35-17.24c4.37-3.41,4.13-6.95-1.86-9.61c-2.49-1.1-6.95-1.26-10.58-1.43
		c-6.61-0.31-12.19-0.96-12.1-5.23c0.06-2.9,5.19-5.58,12.77-5.69c6.51-0.1,13.28,0.27,19.55,1.14c7.57,1.05,11.88,6.84,9.59,11.5
		c-3.75,7.65-11.83,14.05-21.77,19.92c-3.85,2.28-8.08,4.45-11.17,6.98c-1.96,1.6-2,3.8-3.15,5.69c-1.24,2.05-2.09,4.27-4.28,6.04
		c-4.82,3.88-14.72,5.73-16.58,10.88c-0.97,2.67-2.68,4.98,4.23,6.73c6.61,1.67,9.11,9.12,6.58,14.03
		c-0.86,1.67-0.85,3.52-0.57,5.26c0.7,4.42-1.68,8.32-6.73,11.85c-0.42,0.29-0.97,0.57-1.2,0.9c-1.02,1.52-1.07,3.74-3.11,4.43
		c-3.87,1.3-8.81,2.25-13.41,2.4c-8.06,0.25-16.21-0.23-24.33-0.37c-0.95-0.02-1.91,0.17-2.87,0.26c0.5,0.44,0.92,0.9,1.51,1.3
		c7.35,5.09,19.28,5.42,29.56,7.47c15.89,3.17,31.8,6.31,47.58,9.61c1.83,0.38,2.92,1.7,4.35,2.58c-1.99,0.04-4.13,0.36-5.93,0.09
		c-11.58-1.73-23.25-3.35-34.58-5.46c-17.71-3.3-35.24-6.86-52.64-10.55c-3.27-0.7-5.46-2.65-8.39-3.87c-1.59-0.66-4-1.61-5.5-1.4
		c-10.69,1.49-21.6,2.8-31.75,5.01c-13.35,2.9-25.84,6.82-39.16,9.75c-4.8,1.06-10.92,0.65-16.45,0.67
		c-1.38,0.01-3.89-0.9-3.92-1.42c-0.08-1.17,0.34-2.78,1.84-3.47c5.86-2.69,7.95-6.01,9.55-9.85c1.02-2.44,4.9-4.76,8.44-6.68
		c9.27-5.03,19.58-9.57,28.33-14.81c3.06-1.83,2.37-5.2,4.15-7.72c3.34-4.75-4.22-7.06-8.04-10.21c-4.12-3.4-5.2-6.71-0.89-10.39
		c5-4.28,1.26-13.28-6.42-16.44c-11.49-4.73-24.27-7.85-39.12-8.82c-6.66-0.44-13.15-1.64-19.65-2.62
		c-1.26-0.19-2.19-0.98-3.27-1.49c1.46-0.15,3-0.53,4.36-0.4c9.12,0.82,18.19,1.82,27.32,2.61c7.84,0.68,14.55-0.43,20.96-3.04
		c4.25-1.73,10.01-2.45,14.95-3.77c1.33-0.36,2.81-1.21,2.97-1.9c0.17-0.74-0.74-1.95-1.91-2.29c-13.29-3.81-19.39-10.51-27.13-16.7
		c-3.37-2.69-10.55-4.15-16.04-6.13c-3.5-1.26-6.99-2.54-10.64-3.69c-7.5-2.35-14.9-4.82-22.71-6.86
		c-19.96-5.22-40.27-10.08-60.18-15.35c-23-6.1-45.59-12.61-68.62-18.67c-9.48-2.5-19.71-4.24-29.5-6.45
		c-6.47-1.46-12.69-3.2-19.18-4.64c-1.81-0.4-4.16-0.16-6.27-0.21c1.07,0.73,1.91,1.6,3.24,2.16c20.39,8.58,40.8,17.15,61.31,25.65
		c7.17,2.97,15.07,4.78,24.8,4.56c11.51-0.25,17.1,3.39,14.61,9.15c-0.37,0.86-2.99,1.9-4.84,2.07c-2.8,0.25-6.02,0.08-8.73-0.4
		c-15.87-2.84-31.59-6.03-44.39-11.76c-22.27-9.96-44.15-20.15-65.86-30.43c-16.45-7.79-32.39-15.86-48.55-23.8
		c-4.75-2.34-9.87-4.52-14.12-7.08c-3.46-2.08-3.88-4.79,0.35-6.76c1.89-0.88,6.1-1.5,8.26-1.03c13.27,2.87,25.55,6.45,34.32,12.72
		c5.66,4.05,12.75,7.14,23.08,8.55c8.44,1.15,16.17,3.93,23.77,6.35c11.36,3.62,22.38,7.52,33.45,11.38
		c8.35,2.91,16.12,6.33,24.89,8.85c32.42,9.32,64.85,18.66,97.9,27.36c14.71,3.87,30.94,6.2,46.39,9.35
		c3.52,0.72,6.55,2.03,9.97,2.9c16.94,4.31,33.5,9.19,45.53,16.65c7.23,4.49,17.24,9.01,16.08,15.77c-0.38,2.21-3.63,4.68-6.93,6.3
		C508.03,767.93,497.67,768.29,487.38,768.15z M519.28,840.01c0.19,0.23,0.38,0.46,0.57,0.68c5.84-0.67,11.68-1.32,17.51-2
		c1.67-0.19,3.31-0.46,4.96-0.69c-1.48-0.68-2.94-1.38-4.45-2.05c-0.32-0.14-0.8-0.19-1.18-0.3c-9.8-2.8-20.26-5.21-24.41-11.26
		c-0.12-0.17-2.94-0.2-3.23,0.06c-1.77,1.6-2.41,3.7-4.82,4.9c-9.32,4.62-13.77,10.42-16.89,16.62c-0.22,0.44-0.18,1.13,0.33,1.38
		c0.56,0.27,2.02,0.37,2.74,0.19c1.69-0.43,3.07-1.19,4.77-1.62C503.17,843.92,511.24,841.98,519.28,840.01z"/>
	<path class="st0" d="M700.77,794.6c7.57-5.5,21.17-7.64,33.47-5.57c2.94,0.49,6.1,1.28,8.96,1.1c4.2-0.27,9.86-0.68,11.88-2.13
		c2.28-1.64,1.92-4.55,1.29-6.8c-0.25-0.9-4.12-1.77-6.63-2.22c-8.85-1.6-15.62-4.58-17.66-9.11c-1.13-2.5,0.6-5.86,3.24-8.18
		c4.76-4.18,11.63-7.72,16.79-11.81c9.05-7.17,19.32-14.19,15.36-23.68c-0.71-1.7-0.6-3.74,0.56-5.36c2.23-3.1-1.33-3.11-5.06-2.77
		c-5.64,0.52-11.15,1.4-16.74,2.07c-1.4,0.17-3.23,0.43-4.3,0.13c-6.24-1.76-11.08,0.06-16.25,1.37c-1.93,0.49-4.48,1.04-6.31,0.77
		c-3.12-0.45-7.18-1.2-8.37-2.45c-0.84-0.88,1.68-3.47,3.98-4.12c14.34-4.03,29.23-7.08,46.27-6.67c6.58,0.16,13.27-1.08,19.94-1.58
		c8.28-0.63,14.31,1.8,14.34,6.17c0.02,2.41-1.35,4.86-2.52,7.23c-2.54,5.17-4.24,10.55-8.38,15.37c-4.02,4.68-10.51,8.82-16.2,13.1
		c-3.63,2.73-8.98,5.04-11.26,8c-1.62,2.1-0.34,5.16,1.31,7.48c2.24,3.14,5.54,6.18,9.35,8.91c5.77,4.13,11.45,8.45,7.6,13.52
		c-4.85,6.39-16.21,8.79-28.75,9.24c-6.39,0.23-12.9-0.71-19.37-0.78c-2.01-0.02-4.94,0.8-5.96,1.68
		c-4.55,3.97-11.84,4.69-17.62,1.94c-3.79,3.28-8.69,6.45-11.25,10.06c-2.01,2.83-0.56,6.25-1.67,9.31c-1.45,4-3.98,7.9-5.86,11.86
		c-0.57,1.21-1.34,2.65-0.63,3.74c8.2,12.6,24.47,22.63,40.24,32.81c1.27,0.82,3.21,1.65,3.45,2.56c1.18,4.47,6.34,6.89,14,8.77
		c7.5,1.83,9.67,5.36,6.33,7.96c-3.38,2.63-10.7,3.17-16.62,0.31c-6.39-3.09-13.5-4.42-21.78-5.36c-9.56-1.09-12.39-8.52-5.49-12.11
		c1.16-0.6,1.61-2.31,0.79-3.04c-4.51-4-9.8-7.61-18-10.03c-10.78-3.18-11.52-9.13-13.79-14.59c-0.57-1.37-1.49-2.73-2.6-4.01
		c-4.77-5.53-0.17-10.56,2.49-15.81c2.93-5.78,5.51-11.67,6.75-17.59c1.6-7.65,2.22-15.37,2.19-23.06
		c-0.01-2.46-4.05-4.85-5.14-7.39c-1.01-2.35-2.56-5.6-0.37-7.18c8.15-5.9,4.91-12.31,5.39-18.59c0.16-2.08-0.07-4.32,1.36-6.18
		c2.48-3.24,0.78-4.92-5.38-5.97c-3.17-0.54-6.17-1.38-9.1-2.22c-5.45-1.56-4.94-3.85-2.22-6.15c5.57-4.71,22.34-8.02,31.23-5.68
		c12.92,3.4,17.74,6.5,15.3,14.99c-0.65,2.27,0.49,4.67,0.09,6.97c-0.4,2.32-1.72,4.6-2.6,6.9c-0.22,0.58-0.75,1.27-0.37,1.75
		c2.78,3.47,0.44,6.52-1.76,9.83c-2.38,3.59-2.95,7.5-4.25,11.27c-0.25,0.74,0.3,1.66-0.37,2.24
		C697.22,781.71,701.86,788.09,700.77,794.6z"/>
	<path class="st0" d="M888.12,730.91c8.82-7.93,17.7-15.84,26.45-23.78c10.72-9.73,21.42-19.46,31.96-29.23
		c9.11-8.44,18.2-16.89,26.9-25.45c8.34-8.21,15.58-16.72,24.39-24.78c8.25-7.55,17.77-14.74,27.12-21.97
		c1.18-0.91,5.55-1.78,6.87-1.36c2.37,0.75,4.06,2.4,5.03,3.85c0.63,0.94-0.24,2.24-0.91,3.3c-6.47,10.19-12.62,20.43-19.69,30.5
		c-6.75,9.63-14.48,19.09-21.78,28.62c-6.98,9.12-9.81,18.01,2.15,26.88c7.62,5.65,0.86,19.6-10.34,23.38
		c-5.47,1.84-11.54,2.54-17.08,0.6c-7.14-2.5-12.21-6.16-10.7-10.75c2.83-8.56,5.57-17.2,10.54-25.47
		c6.02-10.02,14.37-19.67,21.57-29.52c2-2.73,3.46-5.57,5.17-8.35c-0.62-0.19-1.23-0.39-1.85-0.58c-4.28,2.76-9.19,5.32-12.72,8.31
		c-7.61,6.45-15.01,13-21.57,19.74c-6.93,7.13-12.79,14.53-19.11,21.82c-0.84,0.97-1.45,1.99-2.46,2.91
		c-7.97,7.15-16.26,14.2-23.94,21.42c-4.9,4.61-8.66,9.55-13.51,14.18c-1.61,1.54-4.71,2.85-7.71,3.76
		c-1.68,0.51-5.98,0.39-6.62-0.17c-1.35-1.2-1.48-2.89-1.31-4.36c0.12-1.06,1.52-2.09,2.35-3.14
		C887.59,731.16,887.86,731.03,888.12,730.91z"/>
	<path class="st0" d="M1018.1,1004.59c-3.88-11.6-7.26-22.33-11.18-33.01c-1.27-3.47-3.6-6.88-6.11-10.18
		c-6.93-9.12-14.21-18.16-21.34-27.24c-0.55-0.7-0.86-1.45-1.36-2.16c-1.53-2.18-3.67-5.03,1.75-5.88
		c4.16-0.66,11.55-0.26,13.88,1.2c5.13,3.2,9.05,7.19,11.49,11.17c3.96,6.46,6.57,13.16,9.34,19.8c3.78,9.06,6.95,18.19,10.81,27.24
		c2.74,6.41,6.19,12.74,9.31,19.1c0.61,1.24,0.98,2.52,1.75,3.74c6.17,9.74,12.37,19.48,18.67,29.2c1.6,2.47,4.02,4.82,5.28,7.33
		c1.06,2.11,2.71,4.99-3.34,5.71c-5.78,0.68-10.36-1.58-10.71-4.19c-1.21-8.98-10.83-16.29-17.95-23.95
		c-7.09-7.64-16.74-14.74-26.49-21.62c-15.17-10.7-31.21-21.08-47.22-31.45c-8.37-5.42-16.19-11.51-30.61-13.11
		c-26-2.89-40.62-12.61-54.24-23.04c-0.65-0.5-1.73-1.06-1.68-1.57c0.16-1.54,0.77-3.07,1.2-4.61c2.96,0.46,6.77,0.48,8.69,1.47
		c4.57,2.34,8.05,5.29,15.52,5.35c1.61,0.01,3.33-0.27,4.8-0.06c3.4,0.48,7.48,0.75,9.87,1.88c7.65,3.64,14.64,7.64,21.93,11.48
		c0.92,0.49,1.91,1.05,3.09,1.28c25.03,4.86,35.59,16.76,49.27,26.98c10.48,7.83,19.37,16.23,29.03,24.36
		C1013.22,1001.19,1015.23,1002.5,1018.1,1004.59z"/>
	<path class="st0" d="M766.35,853.57c-1.8-1.82-6.49-3.43-2.43-5.76c3.75-2.15,7.97-2.11,12.57-0.34c1.98,0.76,4.85,0.9,7.32,1.32
		c0.81-1.46,1.88-2.89,2.32-4.37c0.19-0.65-1.17-1.39-1.37-2.12c-1.07-3.82-2.37-7.63-2.9-11.48c-0.94-6.89-0.99-13.83-2.17-20.71
		c-1.04-6.07-1.61-11.99,2.14-17.93c5.67-8.99,10.08-18.2,16.33-27.07c4.58-6.5,10.82-12.74,17.15-18.86
		c4.23-4.09,4.42-8.34,2.08-12.3c-1.38-2.33-6.63-4.28-10.87-5.9c-7.13-2.72-10.72-6.59-7.48-10.83
		c5.91-7.72,15.13-12.33,30.78-8.92c3.59,0.78,7.45,3.11,8.26,5.05c3.67,8.79,3.73,17.81-0.87,26.43c-2.6,4.88-9.2,9.19-13.86,13.79
		c-5.98,5.9-11.81,11.84-17.71,17.76c0.01-0.01,0.01-0.05,0.01-0.05c-1.49,3-3.66,5.97-4.32,9.02c-0.92,4.27-0.41,8.62-1.12,12.91
		c-0.42,2.52-0.78,5.38-3.28,7.4c-8.66,6.97-5.4,13.49-0.11,20.49c3.39,4.48,5.32,9.49,5.57,14.3c0.36,7.05,1.16,13.71,9.88,19.65
		c4.65,3.17,3.04,7.1-2.44,9.88c-3.24,1.64-16.23,0.77-21.08-1.51c-1.92-0.9-3.44-2.03-5.14-3.05c0,0-0.01-0.01-0.01-0.01
		c-4.32-1.76-8.65-3.51-12.97-5.27c-0.11-0.06-0.21-0.12-0.32-0.18c-1.38-0.47-2.76-0.95-4.15-1.42L766.35,853.57z"/>
	<path class="st0" d="M888.12,730.91c-0.26,0.12-0.52,0.25-0.78,0.37c-10.52,5.66-9.86,9.91,0.58,15.67
		c4.1,2.26,7.05,5.56,8.19,8.61c1.04,2.77-2.88,4.51-9.35,4.94c-19.5,1.3-38.11,4.29-55.52,9.05c-1.34,0.37-2.18,1.34-2.95,2.11
		c-2.71,2.7-6.32,4.96-12.75,4.73c-5.75-0.21-8.66-2.35-9.86-5.11c-0.01,0.01-0.01,0.06-0.02,0.06c2.76-2.02,5.01-4.31,8.43-5.99
		c3.06-1.5,7.26-2.46,11.19-3.39c8.66-2.05,17.72-3.7,26.02-6.06c1.8-0.51,2.46-3.62,1.29-5.02c-2.48-2.98-2.23-5.26,1.32-8
		c8.92-6.9,16.95-14.1,25.81-21.02c4.41-3.45,10.5-6.35,14.69-9.85c8.81-7.37,17.11-14.92,25.06-22.55c1.87-1.8,1.81-4.18,2.16-6.32
		c0.62-3.81,0.99-7.64,1.19-11.47c0.04-0.7-1.51-2.06-1.91-2.02c-2.28,0.22-5.17,0.46-6.53,1.28c-9.86,5.92-18.82,12.26-29.19,17.92
		c-10.41,5.68-22.07,10.77-33.38,16.01c-1.16,0.54-3.61,0.34-5.47,0.49c0.23-1.01-0.06-2.15,0.77-3.01
		c7.69-7.99,22.33-12.63,34.08-18.7c12.42-6.42,22.87-13.82,35.2-20.29c7.03-3.69,15.87-6.53,24.4-9.36
		c1.89-0.63,7.57-0.05,8.63,0.85c2.09,1.78,3.92,4.48,2.78,6.28c-4.75,7.5-9.48,15.12-16.39,22.14
		c-13.01,13.19-27.65,25.95-41.3,38.98C891.67,724.95,890.21,728.02,888.12,730.91z"/>
	<path class="st0" d="M355.02,795.88c-14.81,1.59-28.9,3.83-41.77,8.34c-5.79,2.03-13.93,2.21-20.77,3.54
		c-11.77,2.29-21.02,0.4-27.88-4.5c-2.47-1.76-4.51-4.65-3.43-6.52c1.85-3.21,7.04-5.99,14.33-5.71c4.59,0.18,10.04,1.31,13.19,2.98
		c5.5,2.9,10.75,5.07,19.11,4.22c14.35-1.47,28.72-2.92,43.1-4.31c13.68-1.32,26.83-0.51,38.4,3.63c2.67,0.95,4.52,3.16,4.84,4.88
		c0.15,0.77-4.2,2.01-6.86,2.63c-10.41,2.45-21.89,4.23-29.26,8.94c-8.36,5.34-20.31,7.71-31.1,10.98
		c-19.87,6.03-37.46,13.05-47.18,24.2c-7.85,9-15.36,18.08-23.7,26.96c-4.63,4.93-10.38,9.62-16.13,14.25
		c-4.11,3.31-10.61,5.17-18.24,5.05c-1.88-0.03-5.5-2.42-5.13-3.41c1.49-3.94,3.52-7.93,6.68-11.59
		c5.64-6.53,11.26-13.16,18.72-19.16c6.99-5.62,16.45-10.42,24.62-15.66c6.14-3.94,11.72-8.11,17.95-12.01
		c11.35-7.1,26.01-12.12,41.04-16.93c10.91-3.49,21.34-7.39,32.25-10.87c4.43-1.41,9.75-2.07,14.34-3.38
		c2.27-0.65,3.78-1.99,5.63-3.02c-1.73-0.58-3.32-1.43-5.21-1.67C366.88,796.99,361.06,796.49,355.02,795.88z"/>
	<path class="st0" d="M870.11,911.81c1.92-4.09,3.04-8.34,5.97-12.23c3.85-5.12,0.98-9.94-0.23-14.9
		c-1.26-5.16-1.62-10.4-3.55-15.49c-1.09-2.86-4.64-5.47-6.96-8.23c-5.79-6.88-12.85-13.57-16.95-20.71
		c-8.07-14.04-15.01-28.26-21.19-42.55c-1.53-3.52,0.8-7.71,2.92-11.35c1.64-2.82,6.89-2.65,10.71-0.85
		c7.6,3.57,11.43,8.08,7.78,13.26c-4.72,6.69-1.75,13.32-0.49,19.95c0.28,1.47,4.02,2.68,5.63,4.17
		c8.62,7.97,14.35,16.36,13.78,25.66c-0.09,1.53,0.34,3.2,1.51,4.58c3.97,4.7,9,9.19,12.5,13.98c6.76,9.24,13.16,18.57,18.94,27.99
		c4.18,6.8,7.79,13.74,10.36,20.74c1.82,4.98-1.1,9.84-8.24,13.57c-5.43,2.84-11.91,2.76-17.41,0.29
		C877.45,926.21,870.15,917.18,870.11,911.81z"/>
	<path class="st0" d="M412.4,825.98c-6.87-0.02-14.96-5.78-14.3-9.29c1.08-5.8,8.06-9.68,14.36-14.03
		c7.57-5.22,11.83-10.65,9.39-18.02c-3.03-9.15-13.64-15.76-21.74-23.29c-1.21-1.12-3.2-2.29-3.21-3.44
		c-0.02-5.81-9.7-7.87-16.02-11.17c-16.81-8.78-40.08-12.28-59.65-18.83c-6.28-2.1-14.31-2.87-20.39-5.08
		c-4.37-1.59-7.02-4.5-9.95-6.97c-0.6-0.51,0.5-2.08,1.69-2.48c1.42-0.48,4.28-0.64,5.65-0.21c18.94,5.94,39.62,10.34,57.03,17.66
		c9,3.78,19.32,6.75,29.07,10.06c7.97,2.71,16.05,5.33,23.92,8.1c1.59,0.56,2.77,1.56,3.66,2.48c3.89,4.02,8.54,7.93,11.18,12.17
		c5.01,8.04,8.9,16.26,13.11,24.43c0.71,1.37,0.58,2.85,1.07,4.26c1.27,3.61-0.33,6.78-5.42,9.39c-9.03,4.63-9.58,10.16-7.49,16.22
		C425.78,822.04,422.64,825.89,412.4,825.98z"/>
	<path class="st0" d="M390.15,823.95c1.48,3.94-2.81,6.3-7.91,8.78c-11.72,5.7-23.12,11.58-34.25,17.59
		c-15.4,8.32-31.02,16.56-45.36,25.34c-7.66,4.69-12.61,10.52-19.19,15.7c-4.59,3.61-8.72,7.73-15.08,10.31
		c-12.85,5.22-20.34,12.17-28.6,19.07c-8.54,7.14-18.63,13.77-32.31,18.67c-0.46,0.16-1.2,0.12-1.8,0.17
		c0.22-0.85-0.04-1.86,0.75-2.53c3.53-2.97,7.4-5.83,11.09-8.74c10.01-7.91,19.54-15.99,30.1-23.7
		c10.66-7.78,22.46-15.15,33.5-22.81c4.59-3.18,7.81-6.93,12.83-9.89c12.7-7.49,25.71-14.86,39.3-21.93
		c10.73-5.58,20.03-11.38,25.55-18.89c2.96-4.03,8.61-7.74,14.39-10.96c2.83-1.57,9.07-2.54,13.15-2.13
		c2.47,0.25,3.76,3.63,5.59,5.6C391.31,823.72,390.73,823.83,390.15,823.95z"/>
	<path class="st0" d="M896.52,841.87c3.13,0.17,6.66,0.32,10.15,0.58c11.5,0.84,14.14,0.01,17.67-5.67
		c3.17-5.11,13.96-6.4,20.81-2.34c2.42,1.44,4.55,3.32,5.2,5.15c1.2,3.4,1.73,6.91,1.6,10.36c-0.15,3.8-4.49,5.25-11.74,4.57
		c-2.12-0.2-4.56-0.35-6.51-0.01c-10.23,1.77-20.24,1.14-30.33-0.26c-0.39-0.05-2.02,1.02-1.95,1.53c0.32,2.32,1.47,4.62,1.53,6.94
		c0.12,4.22-6.73,6.12-13.91,4.03c-8.55-2.49-18.33-13.08-16.12-17.99c1.75-3.9,7.54-5.82,14.81-6.59
		C890.45,841.87,893.31,841.96,896.52,841.87z"/>
	<path class="st0" d="M389.17,690.27c5.63,1.41,11.55,2.28,15.93,4.11c14.55,6.1,31.06,10.35,48.28,13.87
		c9.84,2.01,20.69,2.78,30.35,4.96c5.1,1.16,9.15,3.96,12.58,6.42c1.26,0.9,0.25,3.3-1.36,4.36c-1.18,0.78-5.22,0.91-7.66,0.62
		c-9.47-1.13-18.78-2.59-28.2-3.82c-7.26-0.95-14.79-1.45-21.86-2.67c-4.78-0.83-9.05-2.49-13.39-3.9c-5.41-1.76-10.51-3.79-16-5.47
		c-9.6-2.94-18.61-6.22-24.02-11.38c-1.35-1.29-1.51-3.21-0.8-4.66C383.44,691.82,386.53,691.26,389.17,690.27z"/>
	<path class="st0" d="M783.62,860.37C783.62,860.37,783.63,860.37,783.62,860.37c2.02,3.4,2.77,6.56-5.17,8.39
		c-0.87,0.2-1.88,1.24-1.57,1.62c3.08,3.76,6.44,7.47,9.69,11.19c0.6,0.69,1.74,1.46,1.52,2.08c-0.52,1.42-1.21,3.71-2.78,3.94
		c-2.36,0.34-5.63-0.66-8.33-1.3c-2.02-0.48-3.78-1.26-5.61-1.93c-5.33-1.95-10.89-3.76-15.81-5.95c-1.64-0.73-2.88-2.73-2.1-3.66
		c2.33-2.77-0.43-4.34-3.59-6.13c-3.34-1.89-5.73-3.71,0.03-5.95c2.72-1.06,4.97-3.17,5.35-4.93c1.11-5.13,1.45-5.44,11.1-4.18
		c0,0-0.17-0.07-0.17-0.07c1.38,0.47,2.76,0.95,4.15,1.42c0.11,0.06,0.21,0.12,0.32,0.18C774.97,856.85,779.29,858.61,783.62,860.37
		z"/>
	<path class="st0" d="M844.95,782.72c3.33-4.89,4.51-9.46,12.7-11.84c2.4-0.7,7.1-0.78,9.06-0.01c2.02,0.79,3.62,3.37,2.58,4.45
		c-4.24,4.41-3.81,8.65-1.1,13.16c1.8,2.99-1.6,5.23-6.41,6.47c-1.65,0.43-6.22-0.34-7.11-1.21
		C850.84,790.07,847.89,786.16,844.95,782.72z"/>
	<path class="st0" d="M206.76,903.43c0.68-0.43,1.36-0.86,2.04-1.28c0.23,0.08,0.46,0.17,0.69,0.25c-0.63,0.47-1.26,0.94-1.89,1.41
		C207.32,903.68,207.04,903.55,206.76,903.43z"/>
</g>
<g>
	<g>
		<path d="M448.07,929.82c1.22-11.53,5.04-23.12,8.65-33.9c3.67-10.97,8.43-19.04,19.27-30.15c42.8,22.56,83.49,38.53,163.77-18.43
			c-28.9,33.5-44.32,42.74-51.73,49.28c-28.09,5.71-67.88,3.11-93.23-5.09c-6.85,11.15-9.12,16.73-11.34,27.93
			c20.71-1.99,43.2-1.93,67.72-2.55c24.51-0.62,47.51-1.99,69.87-2.53c22.36-0.54,42.28,0.27,58.69,5.39
			c16.42,5.12,25,15.4,22.85,27.8c-1.22,7.06-5.96,13.75-13.66,19.08c-7.71,5.33-17.17,9.26-27.64,11.77
			c-10.48,2.51-21.57,3.71-32.71,4.09c-11.15,0.38-21.32,0.06-30.58-0.36c-9.26-0.42-17.28-0.89-24.5-1.13
			c-7.23-0.25-12.9-0.3-17.72-0.55c-10.2-2.52-21.09-2.99-31.37-2.39c-10.29,0.6-23.1,2.82-37.98,8.11
			c-6.28,8.1-8.76,12.83-11.89,24.32c-7.93,0.84-12.06,1.24-20.54,1.85c5.15-15.82,9.47-31.35,26.82-45.06
			c10.59-2.2,21.67-3.56,32.96-4.15c11.27-0.59,22.07-0.45,32.17,0.42c10.1,0.88,19.09,2.47,26.82,4.7
			c7.73,2.23,13.81,4.88,18.39,7.66c7.44,0.53,14.46-0.03,21.05-2.37c6.58-2.33,12.42-5.38,16.96-9.12
			c4.54-3.74,7.76-7.66,9.5-11.52c1.73-3.86,2.32-6.59,2.18-8.1c-2.37-7.77-9.31-13.31-19.18-16.58
			c-9.87-3.27-21.31-4.84-33.95-5.51c-12.66-0.66-25.92-0.75-39.97-0.55c-14.06,0.2-27.55,0.41-40.58,0.99
			c-13.04,0.58-24.85,1.34-35.36,2.6C461.31,927.05,453.39,928.45,448.07,929.82z"/>
	</g>
</g>
</svg>
